<svg xmlns="http://www.w3.org/2000/svg" width="30" height="30" fill="none"><path fill="#000" d="M7.595 19.741q-1.202-1.727-1.203-6.429v-4.28q0-4.372-1.053-6.16c-.7-1.194-1.87-1.79-3.502-1.79-.357 0-.685.018-.987.046a7 7 0 0 0-.85.143v1.155h.636q1.111 0 1.54.901.43.91.43 4.152v5.314c0 3.29.78 5.797 2.354 7.513 1.178 1.287 2.799 2.127 4.863 2.531v-1.576c-.984-.334-1.743-.822-2.228-1.52m14.81 0q1.202-1.727 1.203-6.429v-4.28q0-4.372 1.053-6.16c.7-1.194 1.87-1.79 3.502-1.79.357 0 .685.018.987.046q.454.05.85.143v1.155h-.636q-1.111 0-1.54.901-.43.91-.43 4.152v5.314c0 3.29-.78 5.797-2.354 7.513-1.178 1.287-2.799 2.127-4.863 2.531v-1.576c.984-.334 1.743-.822 2.228-1.52M17.878 1.81q.76-.785 3.075-.898V0H9.047v.912q2.354.113 3.102.898c.499.526.744 1.565.744 3.117v20.127c0 1.625-.245 2.696-.744 3.204q-.747.77-3.102.833V30h11.866l.04-.909q-2.297-.064-3.065-.891c-.505-.544-.764-1.597-.764-3.146V4.927q-.001-2.328.755-3.117"/></svg>