<svg xmlns="http://www.w3.org/2000/svg" width="30" height="30" fill="none"><g clip-path="url(#a)"><path fill="#000" d="M15 0q2.066 0 3.984.527 1.92.528 3.575 1.524a16.4 16.4 0 0 1 3.032 2.344q1.377 1.347 2.358 3.032a15 15 0 0 1 1.509 3.589A15.3 15.3 0 0 1 30 15a15 15 0 0 1-.527 3.984q-.528 1.92-1.524 3.575a16.4 16.4 0 0 1-2.344 3.032 14.3 14.3 0 0 1-3.032 2.358 15 15 0 0 1-3.589 1.509A15.3 15.3 0 0 1 15 30a3.6 3.6 0 0 1-1.45-.293 4 4 0 0 1-1.201-.806 3.5 3.5 0 0 1-.806-1.186 4 4 0 0 1-.293-1.465q0-.776.19-1.509.191-.732.616-1.406.088-.161.16-.25.074-.087.177-.233.365-.572.542-1.04.175-.47.19-1.187 0-.777-.293-1.45a4 4 0 0 0-.806-1.201 3.5 3.5 0 0 0-1.186-.806 4 4 0 0 0-1.465-.293q-.704 0-1.172.176a5.6 5.6 0 0 0-1.055.556 4 4 0 0 0-.234.176 1.6 1.6 0 0 1-.249.161q-.66.411-1.392.6a6.5 6.5 0 0 1-1.523.206 3.6 3.6 0 0 1-1.45-.293 4 4 0 0 1-1.201-.806 3.5 3.5 0 0 1-.806-1.186A4 4 0 0 1 0 15q0-2.065.527-3.984.528-1.92 1.524-3.575A16.4 16.4 0 0 1 4.395 4.41a14.3 14.3 0 0 1 3.032-2.358 15 15 0 0 1 3.589-1.51A15.3 15.3 0 0 1 15 0m5.625 7.031q-.483 0-.908.176a2.2 2.2 0 0 0-.747.513q-.323.336-.498.747a2.5 2.5 0 0 0-.19.908q0 .483.175.908.175.424.513.747.336.323.747.498.41.176.908.19.483 0 .908-.175.424-.176.747-.513.323-.336.498-.747a2.5 2.5 0 0 0 .19-.908q0-.483-.175-.908a2.2 2.2 0 0 0-.513-.747 2.5 2.5 0 0 0-.747-.498 2.5 2.5 0 0 0-.908-.19M7.5 13.594q.483 0 .908-.176.424-.176.747-.513a2.5 2.5 0 0 0 .498-.747 2.5 2.5 0 0 0 .19-.908q0-.483-.175-.908a2.2 2.2 0 0 0-.513-.747 2.5 2.5 0 0 0-.747-.498 2.5 2.5 0 0 0-.908-.19q-.483 0-.908.175a2.2 2.2 0 0 0-.747.513 2.5 2.5 0 0 0-.498.747 2.5 2.5 0 0 0-.19.908q0 .483.175.908.175.424.513.747.336.323.747.498.41.176.908.19m5.625-3.75q.483 0 .908-.176.424-.175.747-.513.323-.336.498-.747a2.5 2.5 0 0 0 .19-.908q0-.483-.175-.908a2.2 2.2 0 0 0-.513-.747 2.5 2.5 0 0 0-.747-.498 2.5 2.5 0 0 0-.908-.19q-.483 0-.908.175a2.2 2.2 0 0 0-.747.513q-.323.336-.498.747a2.5 2.5 0 0 0-.19.908q0 .483.175.908.176.424.513.747a2.5 2.5 0 0 0 .747.498q.41.177.908.19m5.625 15q.483 0 .908-.176.425-.175.747-.513.323-.336.498-.747a2.5 2.5 0 0 0 .19-.908q0-.483-.175-.908a2.2 2.2 0 0 0-.513-.747 2.5 2.5 0 0 0-.747-.498 2.5 2.5 0 0 0-.908-.19q-.483 0-.908.175a2.2 2.2 0 0 0-.747.513q-.323.336-.498.747a2.5 2.5 0 0 0-.19.908q0 .483.175.908.175.424.513.747.336.323.747.498.41.176.908.19m3.75-5.625q.483 0 .908-.176.424-.175.747-.513.323-.336.498-.747a2.5 2.5 0 0 0 .19-.908q0-.483-.175-.908a2.2 2.2 0 0 0-.513-.747 2.5 2.5 0 0 0-.747-.498 2.5 2.5 0 0 0-.908-.19q-.483 0-.908.175a2.2 2.2 0 0 0-.747.513q-.323.336-.498.747a2.5 2.5 0 0 0-.19.908q0 .483.175.908t.513.747q.336.323.747.498.41.176.908.19"/></g><defs><clipPath id="a"><path fill="#fff" d="M0 0h30v30H0z"/></clipPath></defs></svg>