<svg xmlns="http://www.w3.org/2000/svg" width="30" height="30" viewBox="0 0 86 86"><path d="M27.643 27.643v30.714h30.714V27.643zm24.571 24.571H33.786V33.786h18.428z"/><path d="M86 33.786v-6.143H73.714v-9.214a6.143 6.143 0 0 0-6.143-6.143h-9.214V0h-6.143v12.286H33.786V0h-6.143v12.286h-9.214a6.143 6.143 0 0 0-6.143 6.143v9.214H0v6.143h12.286v18.428H0v6.143h12.286v9.214a6.143 6.143 0 0 0 6.143 6.143h9.214V86h6.143V73.714h18.428V86h6.143V73.714h9.214a6.143 6.143 0 0 0 6.143-6.143v-9.214H86v-6.143H73.714V33.786zM67.571 67.57H18.43V18.43h49.14z"/></svg>