<svg xmlns="http://www.w3.org/2000/svg" width="30" height="30" fill="none" viewBox="0 0 32 32"><path stroke="#000" stroke-linecap="round" stroke-linejoin="round" stroke-width="1.5" d="M27.842 17.5v-5.448c0-5.21 0-7.815-1.618-9.433C24.605 1 22 1 16.79 1h-4.737c-5.21 0-7.816 0-9.435 1.62C1 4.236 1 6.841 1 12.05v7.897c0 5.209 0 7.815 1.618 9.433C4.237 30.999 6.842 31 12.053 31h2.368m3.947-3s1.58 0 3.158 3c0 0 5.017-7.5 9.474-9"/><path stroke="#000" stroke-linecap="round" stroke-linejoin="round" stroke-width="1.5" d="m8.105 1 .13.74c.315 1.795.473 2.694 1.137 3.228.66.532 1.618.532 3.535.532h3.027c1.915 0 2.873 0 3.537-.532.663-.534.82-1.433 1.135-3.228l.13-.74M8.107 22h6.315m-6.316-7.5h12.632"/></svg>