<svg xmlns="http://www.w3.org/2000/svg" width="30" height="25"><path d="M6.125 0a3.27 3.27 0 0 0-2.293.935 3.17 3.17 0 0 0-.95 2.257v10.64c0 .846.342 1.658.95 2.256a3.27 3.27 0 0 0 2.293.935H13q.088-1.11.423-2.128H6.125a1.1 1.1 0 0 1-.764-.311c-.203-.2-.317-.47-.317-.753V3.191c0-.281.114-.552.317-.751.203-.2.478-.312.764-.312H22.7c.287 0 .561.112.764.312s.317.47.317.752v5.427a9.5 9.5 0 0 1 2.162.6V3.191c0-.42-.084-.834-.247-1.222a3.2 3.2 0 0 0-.703-1.035A3.3 3.3 0 0 0 23.94.243 3.3 3.3 0 0 0 22.7 0zM1.081 19.151h12c.117.742.323 1.456.608 2.128H1.081a1.1 1.1 0 0 1-.764-.312 1.056 1.056 0 0 1 0-1.504c.202-.2.477-.312.764-.312m16.613-6.418a2.8 2.8 0 0 1-.273 2.206 2.9 2.9 0 0 1-1.803 1.335l-.842.204a8 8 0 0 0 .008 2.565l.779.185c.38.09.737.255 1.05.485s.575.52.77.854a2.8 2.8 0 0 1 .27 2.221l-.27.895a7.6 7.6 0 0 0 2.14 1.308l.71-.736a2.92 2.92 0 0 1 4.178 0l.72.745a7.7 7.7 0 0 0 2.136-1.295l-.285-.973a2.8 2.8 0 0 1 .273-2.206 2.87 2.87 0 0 1 1.805-1.335l.84-.204a8 8 0 0 0-.008-2.565l-.779-.185a2.9 2.9 0 0 1-1.05-.485 2.9 2.9 0 0 1-.77-.854 2.8 2.8 0 0 1-.268-2.221l.268-.894a7.7 7.7 0 0 0-2.139-1.308l-.71.735c-.27.279-.594.501-.953.653a2.92 2.92 0 0 1-3.227-.653l-.718-.745a7.6 7.6 0 0 0-2.137 1.294zm4.646 7.127c-1.154 0-2.09-.953-2.09-2.127 0-1.175.936-2.128 2.09-2.128 1.152 0 2.09.953 2.09 2.128 0 1.174-.937 2.127-2.09 2.127"/></svg>