<svg xmlns="http://www.w3.org/2000/svg" width="30" height="30"><g fill-rule="evenodd" clip-path="url(#a)" clip-rule="evenodd"><path d="M4.946 0h21.365c.954 0 1.883.322 2.58.917.7.596 1.109 1.42 1.109 2.297v17.143c0 .877-.41 1.701-1.109 2.298a3.8 3.8 0 0 1-1.404.749v4.453h1.338c.649 0 1.175.48 1.175 1.072C30 29.52 29.474 30 28.825 30H4.945c-1.286 0-2.536-.435-3.468-1.23C.542 27.972 0 26.875 0 25.714V4.17c.036-1.14.593-2.208 1.523-2.98C2.452.42 3.681 0 4.946 0M2.351 22.065a5.5 5.5 0 0 1 2.595-.636H26.31c.38 0 .728-.13.974-.34a.97.97 0 0 0 .364-.732V3.214c0-.26-.12-.525-.364-.732a1.5 1.5 0 0 0-.974-.34H4.946c-.7 0-1.36.234-1.84.633-.474.393-.734.912-.755 1.442zm22.784 5.792v-4.286H4.945c-.712 0-1.38.242-1.862.653-.479.408-.732.946-.732 1.49 0 .545.253 1.082.732 1.49.481.411 1.15.653 1.863.653z"/><path d="M15.96 7.046a2.5 2.5 0 0 0-1.36.126c-.431.168-.8.453-1.061.821s-.4.8-.4 1.244c0 .553-.479 1.001-1.07 1.001-.59 0-1.069-.448-1.069-1.001 0-.836.263-1.655.756-2.351a4.45 4.45 0 0 1 2.02-1.562 4.76 4.76 0 0 1 2.603-.242 4.6 4.6 0 0 1 2.306 1.162 4.17 4.17 0 0 1 1.229 2.168c.173.82.084 1.67-.256 2.444a4.3 4.3 0 0 1-1.655 1.902c-.44.277-.925.477-1.433.594v.199c0 .553-.48 1.001-1.07 1.001s-1.07-.448-1.07-1.001v-1.079c0-.553.48-1.001 1.07-1.001.465 0 .92-.13 1.309-.375.388-.244.691-.593.871-1.002s.227-.86.135-1.294a2.2 2.2 0 0 0-.648-1.145 2.4 2.4 0 0 0-1.208-.61m-.111 10.743.006-.006a.45.45 0 0 0 .143-.324c0-.12-.05-.237-.143-.324l-.006-.006a.52.52 0 0 0-.349-.132.52.52 0 0 0-.349.133l-.006.005a.45.45 0 0 0-.143.324c0 .12.05.237.143.325l.006.005a.52.52 0 0 0 .349.133.52.52 0 0 0 .349-.133m-1.512-1.417c.307-.29.725-.453 1.163-.453s.856.164 1.163.453.478.681.478 1.087c0 .407-.17.798-.478 1.087-.307.29-.725.454-1.163.454s-.856-.164-1.163-.454a1.5 1.5 0 0 1-.478-1.087c0-.406.17-.797.478-1.087"/></g><defs><clipPath id="a"><path d="M0 0h30v30H0z"/></clipPath></defs></svg>