<svg xmlns="http://www.w3.org/2000/svg" width="27" height="32" fill="none"><path stroke="#000" stroke-linejoin="round" stroke-width="1.875" d="M26 13.494v14.045c0 .917-.395 1.798-1.098 2.447A3.9 3.9 0 0 1 22.25 31H4.75a3.9 3.9 0 0 1-2.652-1.014C1.395 29.337 1 28.456 1 27.538V4.462c0-.919.395-1.799 1.098-2.448A3.9 3.9 0 0 1 4.75 1h7.715a2.6 2.6 0 0 1 1.767.676l11.036 10.187A2.22 2.22 0 0 1 26 13.494Z"/><path stroke="#000" stroke-linecap="round" stroke-linejoin="round" stroke-width="1.875" d="M13.5 1.577v8.654c0 .612.263 1.199.732 1.632a2.6 2.6 0 0 0 1.768.676h9.375M7.25 18.308h12.5m-12.5 5.77h12.5"/></svg>