<svg xmlns="http://www.w3.org/2000/svg" width="20" height="20" fill="none"><path fill="#000" d="M19.17 0q.33 0 .59.286.24.274.24.663V19.05q0 .39-.24.663-.26.285-.59.286H5.83q-.33 0-.59-.286A.97.97 0 0 1 5 19.05v-3.337H.83q-.33 0-.59-.274a1.04 1.04 0 0 1-.24-.674V5.234q0-.377.24-.674.26-.274.59-.274H5V.949q0-.39.24-.663Q5.5 0 5.83 0M5 11.211l1.18 2.538h1.79L6 10.069l1.93-3.623H6.22L5.13 8.743l-.04.068-.03.08Q4.8 8.286 4.5 7.67a39 39 0 0 0-.53-1.223H2.16l1.89 3.645L2 13.75h1.78m8.1 4.822v-2.857H6.25v2.857m5.63-4.285V10.72H10v3.566m1.88-4.995V5.714H10v3.577m1.88-5.005V1.429H6.25v2.857m12.5 14.285v-2.857h-5.62v2.857m5.62-4.285V10.72h-5.62v3.566m5.62-4.995V5.714h-5.62v3.577m5.62-5.005V1.429h-5.62v2.857z"/></svg>