<svg xmlns="http://www.w3.org/2000/svg" width="30" height="30" viewBox="0 0 86 86"><path d="M0 17.917A17.917 17.917 0 0 1 17.917 0h50.166A17.917 17.917 0 0 1 86 17.917v50.166A17.916 17.916 0 0 1 68.083 86H17.917A17.916 17.916 0 0 1 0 68.083zm17.917-10.75a10.75 10.75 0 0 0-10.75 10.75v50.166a10.75 10.75 0 0 0 10.75 10.75h50.166a10.75 10.75 0 0 0 10.75-10.75V17.917a10.75 10.75 0 0 0-10.75-10.75zm28.666 53.75a3.583 3.583 0 0 1 3.584-3.584h16.125a3.584 3.584 0 0 1 0 7.167H50.167a3.583 3.583 0 0 1-3.584-3.583m3.584-32.25a3.583 3.583 0 1 0 0 7.166h16.125a3.583 3.583 0 0 0 0-7.166zM38.37 51.213a3.583 3.583 0 0 1 0 5.074l-10.75 10.75a3.58 3.58 0 0 1-5.074 0l-5.36-5.36a3.587 3.587 0 1 1 5.074-5.075l2.823 2.831 8.213-8.22a3.583 3.583 0 0 1 5.074 0m0-23.593a3.587 3.587 0 1 0-5.074-5.074l-8.213 8.22-2.823-2.83a3.588 3.588 0 1 0-5.074 5.074l5.36 5.36a3.583 3.583 0 0 0 5.074 0z"/></svg>