<svg xmlns="http://www.w3.org/2000/svg" width="20" height="20" fill="none"><path fill="#000" d="M9 15h2V9H9zm1-8a.97.97 0 0 0 .713-.288A.96.96 0 0 0 11 6a.97.97 0 0 0-.288-.712A.97.97 0 0 0 10 5a.97.97 0 0 0-.712.288A.97.97 0 0 0 9 6q0 .424.288.713A.96.96 0 0 0 10 7m0 13a9.7 9.7 0 0 1-3.9-.788 10.1 10.1 0 0 1-3.175-2.137Q1.575 15.725.788 13.9A9.8 9.8 0 0 1 0 10q0-2.074.788-3.9a10.1 10.1 0 0 1 2.137-3.175Q4.273 1.575 6.1.788A9.7 9.7 0 0 1 10 0q2.073 0 3.9.788a10.1 10.1 0 0 1 3.175 2.137q1.348 1.35 2.138 3.175A9.7 9.7 0 0 1 20 10a9.8 9.8 0 0 1-.788 3.9 10 10 0 0 1-2.137 3.175 10.2 10.2 0 0 1-3.175 2.138A9.7 9.7 0 0 1 10 20m0-2q3.35 0 5.675-2.325T18 10t-2.325-5.675T10 2 4.325 4.325 2 10t2.325 5.675T10 18"/></svg>