<svg xmlns="http://www.w3.org/2000/svg" width="269" height="23"><path d="M257.937 16.482q-1.725-1.77-1.725-4.347 0-2.576 1.725-4.324 1.749-1.77 4.255-1.771 2.507 0 4.232 1.77 1.748 1.75 1.748 4.325v.805h-9.545q.276 1.449 1.265 2.277.99.828 2.3.828 1.61 0 2.576-.805.438-.322.759-.805h2.53q-.483 1.126-1.219 1.909-1.886 1.886-4.646 1.886-2.506 0-4.255-1.748m.805-5.497h6.9a3.37 3.37 0 0 0-1.104-1.955q-.873-.805-2.346-.805-1.242 0-2.208.759-.966.736-1.242 2M247.941 18V6.27h2.415v1.725h.115q.252-.483.736-.92a3.66 3.66 0 0 1 2.484-.92h1.38v2.3h-1.495q-1.404 0-2.323.897-.897.873-.897 2.323V18zM211.939 1.9h2.76l2.806 13.8h.345l2.714-13.8h4.025l2.829 13.8h.345l2.691-13.8h2.645L229.764 18h-4.255l-2.76-13.225h-.345L219.759 18h-4.37zM200.548 18V1.9h2.415v8.97h1.725l3.565-4.6h2.76l-4.255 5.405 4.6 6.325h-2.99l-3.565-4.945h-1.84V18zm-12.53-3.68h2.645q.162.46.575.874.851.85 2.3.85 1.266 0 1.84-.39t.575-.99q0-.206-.092-.367a.8.8 0 0 0-.322-.322 4 4 0 0 0-.437-.23q-.207-.115-.621-.207a8 8 0 0 0-.667-.161 17 17 0 0 0-.782-.184q-.506-.115-.759-.161-3.68-.828-3.68-3.542 0-1.38 1.265-2.415 1.266-1.035 3.335-1.035 2.876 0 4.301 1.84.645.805.874 1.84h-2.53a1.84 1.84 0 0 0-.506-.736q-.804-.76-2.139-.76-1.035 0-1.564.369-.506.368-.506.92 0 .207.092.39a.9.9 0 0 0 .322.3q.23.137.437.23.231.091.621.207.391.092.667.16.276.046.759.162.507.092.782.16 3.68.829 3.68 3.543 0 1.472-1.334 2.53-1.31 1.035-3.611 1.035-2.99 0-4.577-1.955a4.74 4.74 0 0 1-.943-1.955m-25.77-9.89V1.9h13.225v2.53h-5.29V18h-2.645V4.43zm-8.868 8.395v-2.3h8.395v2.3zM21.21 17.999l-.001.003h.003zm12.891-3.346q0-1.617 1.245-2.677t3.552-1.061h3.313v-.483q0-1.182-.651-1.857T39.698 7.9q-1.326 0-2.125.844a2.5 2.5 0 0 0-.502.844h-2.513q.228-1.11.891-1.978 1.53-2.001 4.249-2.002 2.284 0 3.598 1.315 1.313 1.314 1.313 3.508v7.718H42.21v-1.688h-.114a4.5 4.5 0 0 1-.913.964q-1.281.965-2.97.965-1.942 0-3.028-1.025-1.084-1.024-1.084-2.712m2.513-.12q0 1.567 2.17 1.567 1.622 0 2.525-.832.901-.833.902-2.304h-3.54q-2.057 0-2.057 1.568m8.962-8.682h2.513l2.513 10.009h1.485L54.6 5.85h2.513l-3.199 12.3h-5.14zm11.991 8.803q0-1.617 1.245-2.677t3.552-1.061h3.312v-.483q0-1.182-.65-1.857-.652-.675-1.863-.675-1.325 0-2.124.844a2.5 2.5 0 0 0-.503.844h-2.513q.229-1.11.891-1.978 1.53-2.001 4.25-2.002 2.283 0 3.597 1.315t1.314 3.508v7.718h-2.4v-1.688h-.113a4.5 4.5 0 0 1-.914.964q-1.28.965-2.97.965-1.943 0-3.027-1.025t-1.084-2.712m2.513-.12q0 1.567 2.17 1.567 1.62 0 2.524-.832.902-.833.902-2.304h-3.54q-2.055 0-2.056 1.568m10.362 3.618V5.85h2.399v1.688h.114q.273-.481.845-.964a4.44 4.44 0 0 1 2.81-.965q2.17 0 3.37 1.327t1.199 3.858v7.356H78.78v-7.115q0-1.615-.673-2.375-.675-.76-2.068-.76t-2.296 1.001q-.903 1.002-.902 2.617v6.632zM82.351 8.141v-2.29h1.37V3.198h2.4V5.85h3.54v2.29h-3.54v7.718h3.655v2.29h-6.054V8.142zm9.579 8.477Q90.365 14.847 90.365 12q0-2.846 1.565-4.619t3.917-1.772q1.485 0 2.72.916.547.411.936.917h.114V5.85h2.398v16.882h-9.937V20.44h7.539v-3.858h-.115a4.8 4.8 0 0 1-.936.916 4.47 4.47 0 0 1-2.719.893q-2.353 0-3.917-1.773m1.861-7.657q-.915 1.061-.914 3.039 0 1.977.914 3.039.915 1.06 2.513 1.061 1.507 0 2.41-1.073T99.617 12t-.903-3.027-2.41-1.073q-1.6 0-2.513 1.061m10.538 4.245V5.85h2.399v7.115q0 1.616.674 2.375.674.76 2.068.76 1.393 0 2.296-1.001.902-1.002.902-2.617V5.85h2.399v12.3h-2.399v-1.688h-.114q-.273.482-.845.964a4.44 4.44 0 0 1-2.81.965q-2.17 0-3.369-1.327-1.201-1.326-1.201-3.858m12.631 1.447q0-1.617 1.245-2.677t3.553-1.061h3.312v-.483q0-1.182-.651-1.857t-1.862-.675q-1.325 0-2.125.844a2.5 2.5 0 0 0-.502.844h-2.513q.228-1.11.891-1.978 1.531-2.001 4.249-2.002 2.284 0 3.598 1.315t1.313 3.508v7.718h-2.398v-1.688h-.115a4.5 4.5 0 0 1-.913.964q-1.28.965-2.97.965-1.942 0-3.028-1.025-1.083-1.024-1.084-2.712m2.513-.12q0 1.567 2.17 1.567 1.622 0 2.525-.832.902-.833.902-2.304h-3.541q-2.056 0-2.056 1.568m10.362 3.618V5.85h2.399v1.81h.114q.252-.506.731-.965a3.53 3.53 0 0 1 2.468-.964h1.37v2.412h-1.485q-1.393 0-2.296.928-.903.929-.902 2.447v6.632zm9.122-1.532q-1.564-1.771-1.564-4.618 0-2.846 1.564-4.619t3.918-1.772q1.486 0 2.719.916.525.386.936.893h.114v-6.15h2.4V18.15h-2.399v-1.568h-.114a4.8 4.8 0 0 1-.937.916 4.47 4.47 0 0 1-2.718.893q-2.354 0-3.919-1.773m1.862-7.657q-.913 1.061-.913 3.039 0 1.977.913 3.039.914 1.06 2.513 1.061 1.508 0 2.41-1.073t.903-3.027q0-1.953-.903-3.027-.902-1.073-2.41-1.073-1.6 0-2.513 1.061"/><path d="M11.5 0C5.15 0 0 5.149 0 11.5c0 2.095.563 4.057 1.542 5.749l.001.003A11.49 11.49 0 0 0 11.5 23C17.85 23 23 17.851 23 11.5S17.852 0 11.5 0m7.933 17.249H3.568l-1.014-1.756 7.933-13.738h2.027l7.933 13.737zM24.287 0c-.864 0-1.552.708-1.552 1.59 0 .903.689 1.61 1.552 1.61.873 0 1.544-.707 1.544-1.61C25.83.708 25.16 0 24.287 0m.009 2.861c-.68 0-1.176-.562-1.176-1.27 0-.699.496-1.27 1.167-1.27.67 0 1.158.572 1.158 1.28 0 .698-.488 1.26-1.149 1.26"/><path d="M24.636 1.64v-.02c.184-.058.313-.194.313-.369a.45.45 0 0 0-.147-.349c-.11-.067-.24-.116-.524-.116-.248 0-.441.019-.579.048v1.59h.349v-.64h.166c.193 0 .285.078.312.253.046.184.073.33.12.387h.377c-.037-.058-.065-.155-.11-.397-.047-.213-.13-.33-.277-.388m-.414-.117h-.165v-.456a.8.8 0 0 1 .193-.02c.22 0 .321.097.321.243 0 .165-.155.233-.349.233m151.54 13.241q0-1.617 1.245-2.677t3.552-1.062h3.313v-.482q0-1.182-.651-1.857t-1.862-.675q-1.326 0-2.125.844a2.5 2.5 0 0 0-.502.844h-2.513q.228-1.11.891-1.978 1.53-2.001 4.249-2.002 2.284 0 3.598 1.314 1.313 1.316 1.313 3.51v7.717h-2.399V16.57h-.114a4.4 4.4 0 0 1-.914.964q-1.28.965-2.97.965-1.941 0-3.027-1.025-1.084-1.024-1.084-2.713m2.513-.121q0 1.568 2.17 1.568 1.622 0 2.524-.833.903-.831.903-2.303h-3.541q-2.056 0-2.056 1.568m55.725.123q0-1.617 1.245-2.677t3.552-1.062h3.313v-.482q0-1.182-.651-1.857t-1.862-.675q-1.326 0-2.125.844a2.5 2.5 0 0 0-.502.844h-2.513q.227-1.11.891-1.978 1.53-2.001 4.249-2.002 2.284 0 3.598 1.314 1.313 1.316 1.313 3.51v7.717h-2.399V16.57h-.114a4.4 4.4 0 0 1-.914.964q-1.28.965-2.97.965-1.941 0-3.027-1.025Q234 16.451 234 14.762m2.513-.121q0 1.568 2.17 1.568 1.622 0 2.524-.833.903-.831.903-2.303h-3.541q-2.056 0-2.056 1.568"/></svg>