<svg xmlns="http://www.w3.org/2000/svg" width="26" height="23"><path d="m21.35 17.999-.002.003h.004z"/><path d="M11.576 0C5.183 0 0 5.149 0 11.5c0 2.095.566 4.057 1.552 5.749l.001.003A11.58 11.58 0 0 0 11.575 23c6.393 0 11.576-5.149 11.576-11.5S17.969 0 11.576 0m7.984 17.249H3.591l-1.02-1.756 7.985-13.738h2.04l7.985 13.737zM24.446 0a1.57 1.57 0 0 0-1.562 1.59c0 .903.693 1.61 1.562 1.61.879 0 1.554-.707 1.554-1.61C26 .708 25.325 0 24.446 0m.01 2.861c-.685 0-1.184-.562-1.184-1.27 0-.699.499-1.27 1.174-1.27s1.165.572 1.165 1.28c0 .698-.49 1.26-1.156 1.26"/><path d="M24.797 1.64v-.02c.186-.058.315-.194.315-.369a.45.45 0 0 0-.148-.349c-.11-.067-.24-.116-.527-.116-.25 0-.444.019-.583.048v1.59h.352v-.64h.166c.195 0 .287.078.315.253.046.184.074.33.12.387h.38c-.037-.058-.065-.155-.111-.397-.047-.213-.13-.33-.279-.388m-.416-.117h-.166v-.456a.8.8 0 0 1 .194-.02c.222 0 .323.097.323.243 0 .165-.156.233-.35.233"/></svg>