<svg xmlns="http://www.w3.org/2000/svg" width="30" height="26"><path d="M3.75 7.429H7.5c.497 0 .974-.196 1.326-.544.351-.349.549-.821.549-1.314V1.857c0-.492-.198-.965-.55-1.313A1.88 1.88 0 0 0 7.5 0H3.75c-.497 0-.974.196-1.326.544-.351.348-.549.82-.549 1.313v3.714c0 .493.198.965.55 1.314.35.348.828.544 1.325.544m0-5.572H7.5v3.714H3.75zm22.5 16.714H22.5c-.497 0-.974.196-1.326.544a1.85 1.85 0 0 0-.549 1.314v3.714c0 .492.198.965.55 1.313.35.348.828.544 1.325.544h3.75c.497 0 .974-.196 1.326-.544.351-.348.549-.82.549-1.313v-3.714a1.85 1.85 0 0 0-.55-1.314 1.88 1.88 0 0 0-1.325-.544m0 5.572H22.5v-3.714h3.75zM20.076 9.83l-1.326 1.313 5.625 5.571L30 11.143 28.674 9.83l-3.361 3.33V4.643c0-.493-.198-.965-.55-1.313a1.88 1.88 0 0 0-1.326-.544H11.25v1.857h12.188v8.517zM6.563 12.84l3.361 3.33 1.326-1.313-5.625-5.571L0 14.857l1.326 1.313 3.361-3.33v8.517c0 .493.198.965.55 1.313a1.88 1.88 0 0 0 1.326.544H18.75v-1.857H6.563z"/></svg>