<svg xmlns="http://www.w3.org/2000/svg" width="30" height="30" fill="none"><path fill="#000" d="M25.726 15a4.2 4.2 0 0 0-2.157.606l-3.054-3.063 2.45-2.457a2.146 2.146 0 0 0 0-3.03L16.554.627a2.133 2.133 0 0 0-3.02 0l-6.409 6.43a2.146 2.146 0 0 0 0 3.03l2.45 2.456-3.054 3.063a4.307 4.307 0 0 0-5.614 1.068 4.34 4.34 0 0 0 .357 5.72A4.312 4.312 0 0 0 8.56 20.14a4.34 4.34 0 0 0-.529-3.018l3.054-3.063 2.449 2.457q.2.194.442.332v4.581h-3.204V30h8.545v-8.572h-3.205v-4.582q.243-.136.443-.331l2.449-2.457 3.053 3.063a4.285 4.285 0 0 0 .661 5.168 4.255 4.255 0 0 0 5.149.687 4.27 4.27 0 0 0 1.808-2.068 4.286 4.286 0 0 0-1.35-5.03 4.25 4.25 0 0 0-2.6-.878M6.501 19.285a2.15 2.15 0 0 1-1.32 1.98 2.13 2.13 0 0 1-2.327-.464 2.145 2.145 0 0 1 1.51-3.658c.567 0 1.11.225 1.51.627.401.402.627.947.627 1.515m10.68 4.286v4.286H12.91v-4.286zM15.046 15 8.637 8.57l6.408-6.429 6.409 6.43zm10.681 6.428a2.13 2.13 0 0 1-1.973-1.322 2.15 2.15 0 0 1 .463-2.336 2.134 2.134 0 0 1 3.646 1.515c0 .569-.224 1.114-.625 1.516a2.13 2.13 0 0 1-1.51.627"/></svg>