<svg xmlns="http://www.w3.org/2000/svg" width="30" height="24"><path d="M1.212 0C.891 0 .582.126.355.352a1.194 1.194 0 0 0 0 1.697c.227.225.536.351.857.351h2.691L7.083 15c.27 1.068 1.237 1.8 2.349 1.8h15.115c1.094 0 2.024-.72 2.311-1.764L30 3.6h-2.538l-2.916 10.8H9.43L6.25 1.8A2.38 2.38 0 0 0 5.392.498 2.42 2.42 0 0 0 3.903 0zM23.03 16.8c-1.994 0-3.636 1.626-3.636 3.6S21.036 24 23.03 24s3.637-1.626 3.637-3.6-1.643-3.6-3.637-3.6m-10.909 0c-1.994 0-3.636 1.626-3.636 3.6S10.127 24 12.12 24s3.637-1.626 3.637-3.6-1.643-3.6-3.637-3.6M15.758 0v6H12.12l4.849 4.8L21.818 6h-3.636V0zM12.12 19.2c.684 0 1.212.523 1.212 1.2s-.528 1.2-1.212 1.2a1.19 1.19 0 0 1-1.212-1.2c0-.677.529-1.2 1.212-1.2m10.91 0c.683 0 1.211.523 1.211 1.2s-.528 1.2-1.212 1.2a1.19 1.19 0 0 1-1.212-1.2c0-.677.529-1.2 1.212-1.2"/></svg>