<svg xmlns="http://www.w3.org/2000/svg" width="30" height="30" viewBox="0 0 86 87"><path d="M56.438.923 86 15.828v33.24l-5.375-2.71V21.884l-21.5 10.84v10.924l-5.375 2.71V32.723l-21.5-10.84v9.613l-5.375-2.71V15.827zm0 27.1 7.432-3.768-19.442-11.221-8.86 4.488zm13.227-6.648 7.643-3.853-20.87-10.544-6.257 3.176zm-21.29 27.693L43 51.778v-.042l-16.125 8.13v19.266L43 70.96v6.097l-18.812 9.485L0 74.305V45.68l24.188-12.195L48.375 45.68zM21.5 79.132V59.866l-16.125-8.13V70.96zm2.688-23.966 15.495-7.792-15.495-7.833-15.496 7.833zm24.187-.043 18.813-9.485L86 55.123v22.315l-18.812 9.485-18.813-9.485zM64.5 79.513V66.598l-10.75-5.42v12.915zm16.125-5.42V61.178l-10.75 5.42v12.915zM67.188 61.898l10.12-5.123-10.12-5.082-10.12 5.082z"/></svg>