<svg xmlns="http://www.w3.org/2000/svg" width="30" height="30" fill="none" viewBox="0 0 32 32"><path stroke="#000" stroke-width="1.5" d="M16 20.5c2.636 0 4.773-2.015 4.773-4.5S18.636 11.5 16 11.5s-4.773 2.015-4.773 4.5 2.137 4.5 4.773 4.5Z"/><path stroke="#000" stroke-width="1.5" d="M18.808 1.228C18.224 1 17.483 1 16 1s-2.224 0-2.808.228c-.386.15-.737.372-1.033.65a3 3 0 0 0-.69.975c-.146.334-.205.725-.228 1.294-.01.41-.13.813-.35 1.168-.22.354-.532.651-.906.861a2.7 2.7 0 0 1-1.245.31c-.436.002-.866-.1-1.249-.297-.534-.268-.92-.415-1.304-.463a3.33 3.33 0 0 0-2.352.595c-.5.364-.871.969-1.613 2.179-.741 1.21-1.114 1.815-1.195 2.408-.054.39-.027.787.081 1.168s.295.737.55 1.05c.235.288.564.53 1.075.833.752.445 1.236 1.204 1.236 2.041s-.484 1.596-1.236 2.04c-.51.305-.842.546-1.076.834-.254.313-.44.67-.549 1.05-.108.38-.135.778-.08 1.169.082.59.453 1.197 1.193 2.407.743 1.21 1.113 1.815 1.614 2.18.332.24.71.415 1.114.517a3.4 3.4 0 0 0 1.24.076c.381-.047.768-.195 1.302-.462a2.7 2.7 0 0 1 1.249-.297 2.7 2.7 0 0 1 1.245.31 2.4 2.4 0 0 1 1.256 2.029c.023.57.08.96.228 1.294.16.365.394.696.69.974.296.28.647.5 1.033.651C13.776 31 14.517 31 16 31s2.224 0 2.808-.228c.386-.15.737-.372 1.033-.65.296-.28.53-.61.69-.974.146-.335.205-.725.228-1.295a2.4 2.4 0 0 1 1.256-2.03 2.7 2.7 0 0 1 1.245-.309c.436-.002.866.1 1.249.297.534.267.92.415 1.302.462a3.4 3.4 0 0 0 1.24-.076 3.3 3.3 0 0 0 1.114-.517c.5-.363.871-.97 1.613-2.18.741-1.21 1.114-1.815 1.195-2.407a2.85 2.85 0 0 0-.081-1.169 2.9 2.9 0 0 0-.55-1.05c-.235-.288-.564-.53-1.075-.832a2.5 2.5 0 0 1-.897-.87A2.3 2.3 0 0 1 28.03 16c0-.837.485-1.596 1.237-2.04.51-.305.842-.546 1.076-.834.254-.313.44-.67.549-1.05.108-.38.135-.778.08-1.168-.082-.591-.453-1.197-1.193-2.408-.743-1.21-1.113-1.815-1.614-2.18a3.3 3.3 0 0 0-1.114-.517 3.4 3.4 0 0 0-1.24-.077c-.381.048-.768.196-1.304.463a2.7 2.7 0 0 1-1.247.296 2.7 2.7 0 0 1-1.245-.309 2.5 2.5 0 0 1-.905-.861 2.3 2.3 0 0 1-.351-1.168c-.023-.57-.08-.96-.228-1.295a3 3 0 0 0-.69-.973 3.2 3.2 0 0 0-1.033-.651Z"/></svg>