<svg xmlns="http://www.w3.org/2000/svg" width="30" height="30"><path fill-rule="evenodd" d="M7.382 19.6c-.006.262.07.518.216.728.145.21.352.361.587.431.236.07.486.053.712-.048.225-.1.413-.278.533-.506l1.317-2.499c.763-1.447 1.919-2.611 3.314-3.34a7.2 7.2 0 0 1 4.5-.738l.216.035q.06 1.589.167 3.173l.1 1.454c.08 1.183 1.31 1.843 2.243 1.205 3.062-2.094 5.723-4.791 7.842-7.949l.666-.991a1.24 1.24 0 0 0 0-1.367l-.666-.992C27.01 5.038 24.35 2.34 21.29.246a1.38 1.38 0 0 0-1.443-.08 1.5 1.5 0 0 0-.56.53 1.6 1.6 0 0 0-.243.756l-.1 1.453q-.086 1.28-.14 2.561h-1.488c-2.57 0-5.04 1.076-6.88 2.998s-2.905 4.539-2.967 7.29zm11.503-8.29a9.25 9.25 0 0 0-5.085.62 9.93 9.93 0 0 0-4.108 3.268c.188-2.025 1.072-3.902 2.48-5.268 1.41-1.366 3.242-2.123 5.143-2.123h2.54c.283 0 .555-.118.76-.329a1.2 1.2 0 0 0 .332-.802q.057-1.803.18-3.6l.009-.117a27.4 27.4 0 0 1 6.216 6.604l.207.309-.207.308a27.5 27.5 0 0 1-6.216 6.603l-.01-.117a100 100 0 0 1-.192-4.051 1.2 1.2 0 0 0-.275-.743 1.08 1.08 0 0 0-.656-.382z" clip-rule="evenodd"/><path d="M24.928 23.288a74 74 0 0 0 .365-4.735.7.7 0 0 1 .058-.244.6.6 0 0 1 .142-.201q.797-.751 1.54-1.562c.188-.203.513-.06.509.225a77 77 0 0 1-.438 6.79c-.346 3.159-2.717 5.634-5.653 5.986a65.2 65.2 0 0 1-15.346 0C3.17 29.195.798 26.72.454 23.562a76.7 76.7 0 0 1 0-16.665C.798 3.739 3.168 1.263 6.105.912A65 65 0 0 1 16.26.506c.286.009.481.309.448.613a4 4 0 0 0-.02.19l-.074 1.1a.48.48 0 0 1-.145.317.42.42 0 0 1-.31.12 63 63 0 0 0-9.81.394A4.1 4.1 0 0 0 3.85 4.514 4.64 4.64 0 0 0 2.627 7.17a74.2 74.2 0 0 0 0 16.118 4.64 4.64 0 0 0 1.223 2.657 4.1 4.1 0 0 0 2.498 1.273c4.897.586 9.963.586 14.86 0a4.1 4.1 0 0 0 2.499-1.273 4.64 4.64 0 0 0 1.221-2.657"/></svg>