<svg xmlns="http://www.w3.org/2000/svg" width="30" height="30" fill="none"><g clip-path="url(#a)"><path fill="#000" fill-rule="evenodd" d="M0 14.52a2.14 2.14 0 0 1 .681-1.566L14.304.257a1.07 1.07 0 0 1 1.392 0L29.32 12.954A2.14 2.14 0 0 1 30 14.52v12.266A3.214 3.214 0 0 1 26.786 30H3.214A3.214 3.214 0 0 1 0 26.786zm14.507 4.23h-2.713v-6.428h6.429v6.428zm-4.337 8.572h3.759v-6.43H7.5v6.43zm8.619 0H16.07v-6.43h6.43v6.43z" clip-rule="evenodd"/></g><defs><clipPath id="a"><path fill="#fff" d="M0 0h30v30H0z"/></clipPath></defs></svg>