<svg xmlns="http://www.w3.org/2000/svg" width="30" height="30" fill="none" viewBox="0 0 32 32"><path stroke="#000" stroke-linecap="round" stroke-linejoin="round" stroke-width="1.5" d="M8.128 22.005h6.316m-6.316-7.498H20.76M12.865 31h1.579m-5.532 0c-1.848-.038-3.11-.15-4.336-.488-1.658-.412-2.865-1.8-3.22-3.748-.45-1.836-.293-6.37-.332-11.77.003-4.186-.198-8.207.513-10.493.434-.75.79-3.486 6.67-3.45.987-.036 11.447-.111 13.105.039 5.525.112 6.078 2.81 6.394 5.36.2 1.874.158 4.871.158 8.057M8.128 1.015c.474 2.436.435 4.01 2.171 4.384.75.113 2.463.11 4.303.113 1.642.003 3.315.018 4.065-.15 1.855-.411 1.658-2.586 2.131-4.347m5.116 18.554c-2.171 2.1-6.352 5.847-6.352 6.109-.336.445-.631 1.35-.827 2.625-.248 1.18-.545 2.21-.197 2.51.347.3 1.653.047 3.036-.226 1.105-.112 2.131-.487 2.643-.86.75-.63 5.838-5.512 6.429-6.148.434-.562.473-1.612.094-2.25-.211-.45-1.553-1.65-1.987-1.986a2.5 2.5 0 0 0-2.84.226"/></svg>