<svg xmlns="http://www.w3.org/2000/svg" width="30" height="30" fill="none"><path fill="#000" d="M28.571 0H0v6.666h28.571zM5.714 5H2.857V1.665h2.857zm20.857 12.998a3.1 3.1 0 0 0-1.014-.966 2.65 2.65 0 0 0-1.271-.367H14.283c-.378 0-.74.176-1.007.488a1.82 1.82 0 0 0-.419 1.175v10.005c0 .44.151.863.419 1.175.267.312.629.487 1.007.488h10.003c.447.026.892-.083 1.293-.316.4-.234.742-.584.992-1.017L30 23.33zm-12.288-4.666h10.003a5.15 5.15 0 0 1 2.353.629 6 6 0 0 1 1.932 1.687v-5.65H0v6.667h10.263c.292-.973.836-1.815 1.556-2.412s1.58-.919 2.464-.921M2.857 14.998v-3.333h2.857v3.333zm7.143 5H0v6.665h10zm-7.143 4.999v-3.333h2.857v3.333z"/></svg>