<svg xmlns="http://www.w3.org/2000/svg" width="30" height="30" fill="none"><path fill="#000" fill-rule="evenodd" d="m10.206 7.923-.482 1.492H8.238a2.94 2.94 0 0 0-2.942 2.942v7.062a2.943 2.943 0 0 0 2.942 2.942h12.947a2.94 2.94 0 0 0 2.942-2.942v-7.062a2.94 2.94 0 0 0-2.942-2.942h-1.487l-.481-1.492a2.94 2.94 0 0 0-2.801-2.039h-3.41a2.94 2.94 0 0 0-2.801 2.039m-1.967 2.669h2.342l.745-2.307a1.77 1.77 0 0 1 1.681-1.224h3.41a1.765 1.765 0 0 1 1.68 1.224l.745 2.307h2.343a1.766 1.766 0 0 1 1.766 1.765v7.062a1.765 1.765 0 0 1-1.765 1.765H8.238a1.765 1.765 0 0 1-1.765-1.765v-7.062a1.765 1.765 0 0 1 1.765-1.765" clip-rule="evenodd"/><path fill="#000" fill-rule="evenodd" d="M11.423 15.454a3.53 3.53 0 1 0 7.062 0 3.53 3.53 0 0 0-7.062 0m5.885 0a2.354 2.354 0 1 1-4.708 0 2.354 2.354 0 0 1 4.708 0" clip-rule="evenodd"/><path fill="#000" fill-rule="evenodd" d="M14.712 28.246c7.474 0 13.534-6.06 13.534-13.535 0-7.474-6.06-13.534-13.534-13.534S1.176 7.237 1.176 14.71s6.06 13.535 13.535 13.535m0 1.177c8.125 0 14.711-6.586 14.711-14.712S22.837 0 14.712 0 0 6.586 0 14.711s6.586 14.712 14.712 14.712" clip-rule="evenodd"/></svg>