<svg xmlns="http://www.w3.org/2000/svg" width="34" height="34" fill="inherit"><path stroke="#fff" stroke-linecap="round" stroke-linejoin="round" stroke-width="2.083" d="M28.667 2H5.333A3.333 3.333 0 0 0 2 5.333v23.334A3.333 3.333 0 0 0 5.333 32h23.334A3.333 3.333 0 0 0 32 28.667V5.333A3.333 3.333 0 0 0 28.667 2"/><path stroke="#fff" stroke-linecap="round" stroke-linejoin="round" stroke-width="2.083" d="M15.333 12H22a3.333 3.333 0 0 0 3.333-3.333V2"/><path stroke="#fff" stroke-linecap="round" stroke-linejoin="round" stroke-width="2.083" d="M12 15.333a3.333 3.333 0 1 0 0-6.666 3.333 3.333 0 0 0 0 6.666M8.667 32v-6.667A3.333 3.333 0 0 1 12 22h6.667"/><path stroke="#fff" stroke-linecap="round" stroke-linejoin="round" stroke-width="2.083" d="M22 25.333a3.333 3.333 0 1 0 0-6.666 3.333 3.333 0 0 0 0 6.666"/></svg>