<svg width="15" height="15" viewBox="0 0 15 15" fill="none" xmlns="http://www.w3.org/2000/svg">
<path d="M14.9344 2.84531L13.6844 0.345313C13.6324 0.241475 13.5526 0.154166 13.4538 0.0931732C13.355 0.0321807 13.2411 -8.2969e-05 13.125 1.60235e-07H1.875C1.75889 -8.2969e-05 1.64505 0.0321807 1.54625 0.0931732C1.44744 0.154166 1.36759 0.241475 1.31563 0.345313L0.065625 2.84531C0.0225974 2.93228 0.000143853 3.02797 0 3.125V13.75C0 14.0815 0.131696 14.3995 0.366116 14.6339C0.600537 14.8683 0.918479 15 1.25 15H13.75C14.0815 15 14.3995 14.8683 14.6339 14.6339C14.8683 14.3995 15 14.0815 15 13.75V3.125C14.9999 3.02797 14.9774 2.93228 14.9344 2.84531ZM2.26094 1.25H12.7391L13.3641 2.5H1.63594L2.26094 1.25ZM13.75 13.75H1.25V3.75H13.75V13.75ZM10.4422 8.93281C10.5003 8.99086 10.5464 9.05979 10.5779 9.13566C10.6093 9.21154 10.6255 9.29287 10.6255 9.375C10.6255 9.45713 10.6093 9.53846 10.5779 9.61434C10.5464 9.69021 10.5003 9.75914 10.4422 9.81719L7.94219 12.3172C7.88414 12.3753 7.81521 12.4214 7.73934 12.4529C7.66346 12.4843 7.58213 12.5005 7.5 12.5005C7.41787 12.5005 7.33654 12.4843 7.26066 12.4529C7.18479 12.4214 7.11586 12.3753 7.05781 12.3172L4.55781 9.81719C4.44054 9.69991 4.37465 9.54085 4.37465 9.375C4.37465 9.20915 4.44054 9.05009 4.55781 8.93281C4.67509 8.81554 4.83415 8.74965 5 8.74965C5.16585 8.74965 5.32491 8.81554 5.44219 8.93281L6.875 10.3664V5.625C6.875 5.45924 6.94085 5.30027 7.05806 5.18306C7.17527 5.06585 7.33424 5 7.5 5C7.66576 5 7.82473 5.06585 7.94194 5.18306C8.05915 5.30027 8.125 5.45924 8.125 5.625V10.3664L9.55781 8.93281C9.61586 8.8747 9.68479 8.8286 9.76066 8.79715C9.83654 8.7657 9.91787 8.74951 10 8.74951C10.0821 8.74951 10.1635 8.7657 10.2393 8.79715C10.3152 8.8286 10.3841 8.8747 10.4422 8.93281Z" fill="black"/>
</svg>
