<svg width="16" height="14" viewBox="0 0 16 14" fill="none" xmlns="http://www.w3.org/2000/svg">
<path fill-rule="evenodd" clip-rule="evenodd" d="M15.6334 0.243216C15.8385 0.424037 15.9686 0.685251 15.995 0.969409C16.0214 1.25357 15.9421 1.5374 15.7743 1.75849L6.78115 13.605C6.69275 13.7214 6.5827 13.8166 6.45808 13.8844C6.33346 13.9522 6.19704 13.9912 6.05761 13.9987C5.91819 14.0062 5.77885 13.9821 5.64858 13.928C5.51831 13.8739 5.4 13.791 5.30127 13.6847L0.305057 8.2999C0.209619 8.20056 0.133495 8.08172 0.0811254 7.95033C0.0287561 7.81894 0.00119067 7.67762 3.77285e-05 7.53462C-0.00111521 7.39162 0.0241671 7.24981 0.0744099 7.11746C0.124653 6.98511 0.19885 6.86486 0.292671 6.76374C0.386493 6.66263 0.49806 6.58266 0.620864 6.52851C0.743667 6.47436 0.875247 6.44711 1.00793 6.44835C1.1406 6.44959 1.27172 6.4793 1.39364 6.53574C1.51555 6.59219 1.62581 6.67423 1.71799 6.77709L5.93379 11.3208L14.2275 0.395067C14.3953 0.174022 14.6376 0.0338472 14.9013 0.00537073C15.165 -0.0231057 15.4283 0.0624478 15.6334 0.243216Z" fill="black"/>
</svg>
