<svg width="25" height="21" viewBox="0 0 25 21" fill="none" xmlns="http://www.w3.org/2000/svg">
<path fill-rule="evenodd" clip-rule="evenodd" d="M24.5 10.5C24.5 16.299 19.127 21 12.5 21C10.3701 21.009 8.26931 20.5048 6.3755 19.53L0.5 21L2.507 16.3155C1.2395 14.6505 0.5 12.651 0.5 10.5C0.5 4.701 5.873 0 12.5 0C19.127 0 24.5 4.701 24.5 10.5Z" fill="#54F09D"/>
<path d="M13.125 12C12.928 12 12.733 11.9612 12.551 11.8858C12.369 11.8104 12.2036 11.6999 12.0643 11.5607C11.9251 11.4214 11.8146 11.256 11.7392 11.074C11.6638 10.892 11.625 10.697 11.625 10.5C11.625 10.303 11.6638 10.108 11.7392 9.92598C11.8146 9.74399 11.9251 9.57863 12.0643 9.43934C12.2036 9.30005 12.369 9.18956 12.551 9.11418C12.733 9.0388 12.928 9 13.125 9C13.5228 9 13.9044 9.15804 14.1857 9.43934C14.467 9.72065 14.625 10.1022 14.625 10.5C14.625 10.8978 14.467 11.2794 14.1857 11.5607C13.9044 11.842 13.5228 12 13.125 12ZM18.75 12C18.553 12 18.358 11.9612 18.176 11.8858C17.994 11.8104 17.8286 11.6999 17.6893 11.5607C17.5501 11.4214 17.4396 11.256 17.3642 11.074C17.2888 10.892 17.25 10.697 17.25 10.5C17.25 10.303 17.2888 10.108 17.3642 9.92598C17.4396 9.74399 17.5501 9.57863 17.6893 9.43934C17.8286 9.30005 17.994 9.18956 18.176 9.11418C18.358 9.0388 18.553 9 18.75 9C19.1478 9 19.5294 9.15804 19.8107 9.43934C20.092 9.72065 20.25 10.1022 20.25 10.5C20.25 10.8978 20.092 11.2794 19.8107 11.5607C19.5294 11.842 19.1478 12 18.75 12ZM7.5 12C7.30302 12 7.10796 11.9612 6.92598 11.8858C6.74399 11.8104 6.57863 11.6999 6.43934 11.5607C6.30005 11.4214 6.18956 11.256 6.11418 11.074C6.0388 10.892 6 10.697 6 10.5C6 10.303 6.0388 10.108 6.11418 9.92598C6.18956 9.74399 6.30005 9.57863 6.43934 9.43934C6.57863 9.30005 6.74399 9.18956 6.92598 9.11418C7.10796 9.0388 7.30302 9 7.5 9C7.89783 9 8.27936 9.15804 8.56066 9.43934C8.84196 9.72065 9 10.1022 9 10.5C9 10.8978 8.84196 11.2794 8.56066 11.5607C8.27936 11.842 7.89783 12 7.5 12Z" fill="#2A2A2C"/>
</svg>
