<svg width="24" height="21" viewBox="0 0 24 21" fill="none" xmlns="http://www.w3.org/2000/svg">
<path fill-rule="evenodd" clip-rule="evenodd" d="M24 10.5C24 16.299 18.627 21 12 21C9.87007 21.009 7.76931 20.5048 5.8755 19.53L0 21L2.007 16.3155C0.7395 14.6505 0 12.651 0 10.5C0 4.701 5.373 0 12 0C18.627 0 24 4.701 24 10.5Z" fill="url(#paint0_linear_1311_41)"/>
<path d="M12.625 12C12.428 12 12.233 11.9612 12.051 11.8858C11.869 11.8104 11.7036 11.6999 11.5643 11.5607C11.4251 11.4214 11.3146 11.256 11.2392 11.074C11.1638 10.892 11.125 10.697 11.125 10.5C11.125 10.303 11.1638 10.108 11.2392 9.92598C11.3146 9.74399 11.4251 9.57863 11.5643 9.43934C11.7036 9.30005 11.869 9.18956 12.051 9.11418C12.233 9.0388 12.428 9 12.625 9C13.0228 9 13.4044 9.15804 13.6857 9.43934C13.967 9.72065 14.125 10.1022 14.125 10.5C14.125 10.8978 13.967 11.2794 13.6857 11.5607C13.4044 11.842 13.0228 12 12.625 12ZM18.25 12C18.053 12 17.858 11.9612 17.676 11.8858C17.494 11.8104 17.3286 11.6999 17.1893 11.5607C17.0501 11.4214 16.9396 11.256 16.8642 11.074C16.7888 10.892 16.75 10.697 16.75 10.5C16.75 10.303 16.7888 10.108 16.8642 9.92598C16.9396 9.74399 17.0501 9.57863 17.1893 9.43934C17.3286 9.30005 17.494 9.18956 17.676 9.11418C17.858 9.0388 18.053 9 18.25 9C18.6478 9 19.0294 9.15804 19.3107 9.43934C19.592 9.72065 19.75 10.1022 19.75 10.5C19.75 10.8978 19.592 11.2794 19.3107 11.5607C19.0294 11.842 18.6478 12 18.25 12ZM7 12C6.80302 12 6.60796 11.9612 6.42598 11.8858C6.24399 11.8104 6.07863 11.6999 5.93934 11.5607C5.80005 11.4214 5.68956 11.256 5.61418 11.074C5.5388 10.892 5.5 10.697 5.5 10.5C5.5 10.303 5.5388 10.108 5.61418 9.92598C5.68956 9.74399 5.80005 9.57863 5.93934 9.43934C6.07863 9.30005 6.24399 9.18956 6.42598 9.11418C6.60796 9.0388 6.80302 9 7 9C7.39783 9 7.77936 9.15804 8.06066 9.43934C8.34196 9.72065 8.5 10.1022 8.5 10.5C8.5 10.8978 8.34196 11.2794 8.06066 11.5607C7.77936 11.842 7.39783 12 7 12Z" fill="#2A2A2C"/>
<defs>
<linearGradient id="paint0_linear_1311_41" x1="12" y1="6.15704e-07" x2="12" y2="19" gradientUnits="userSpaceOnUse">
<stop stop-color="#64FFAD"/>
<stop offset="1" stop-color="#3AA16A"/>
</linearGradient>
</defs>
</svg>
