<svg width="17" height="15" viewBox="0 0 17 15" fill="none" xmlns="http://www.w3.org/2000/svg">
<path d="M13.1364 14.1667V11.6667H10.8182V10H13.1364V7.5H14.6818V10H17V11.6667H14.6818V14.1667H13.1364ZM1.54545 15C1.12045 15 0.756758 14.8369 0.454364 14.5108C0.15197 14.1847 0.000515151 13.7922 0 13.3333V1.66667C0 1.20833 0.151455 0.816111 0.454364 0.49C0.757273 0.163889 1.12097 0.000555556 1.54545 0H12.3636C12.7886 0 13.1526 0.163333 13.4555 0.49C13.7584 0.816667 13.9096 1.20889 13.9091 1.66667V5.83333H12.3636V4.16667H1.54545V13.3333H11.5909V15H1.54545Z" fill="black"/>
</svg>
