<svg width="20" height="22" viewBox="0 0 20 22" fill="none" xmlns="http://www.w3.org/2000/svg">
<path d="M10.1963 0.00683594C10.5871 0.0322923 10.9691 0.13333 11.3213 0.304688L11.4951 0.396484L11.4971 0.397461L18.4951 4.4043L18.6621 4.50684C18.9654 4.70711 19.2278 4.96199 19.4395 5.25684C19.4985 5.31652 19.5517 5.38383 19.5957 5.45996C19.6323 5.52339 19.6612 5.58923 19.6826 5.65625C19.8899 6.06891 19.9992 6.52483 20 6.98828V15.0078C20 16.0104 19.4942 16.9381 18.667 17.4883L18.4971 17.5938L11.4971 21.6016L11.4951 21.6025C11.0617 21.8495 10.5741 21.9835 10.0762 21.9961C10.051 21.998 10.0257 22 10 22C9.97402 22 9.94833 21.998 9.92285 21.9961C9.42529 21.9834 8.93803 21.8493 8.50488 21.6025L8.50293 21.6016L1.50293 17.5938V17.5928C0.575473 17.0619 0 16.0789 0 15.0088V6.99121C0 6.51918 0.112402 6.06354 0.317383 5.65625C0.338818 5.58923 0.367678 5.52339 0.404297 5.45996C0.448985 5.38258 0.503211 5.31429 0.563477 5.25391C0.809006 4.91321 1.12635 4.62124 1.50293 4.40527L8.50293 0.397461L8.50488 0.396484C8.96041 0.136941 9.47572 0 10 0L10.1963 0.00683594ZM11 11.5771V19.5811L17.5029 15.8584L17.6133 15.7852C17.8573 15.5986 18 15.3111 18 15.0078V7.53516L11 11.5771ZM9.86816 2.00879C9.73728 2.02585 9.61053 2.06804 9.49512 2.13379L3.04199 5.82812L10 9.84473L16.957 5.82812L10.5049 2.13379L10.3857 2.07617C10.2636 2.02627 10.1327 2 10 2L9.86816 2.00879Z" fill="black"/>
</svg>
