<svg width="6" height="25" viewBox="0 0 6 25" fill="none" xmlns="http://www.w3.org/2000/svg">
<path d="M3.2002 20C4.5808 20.0001 5.7002 21.1194 5.7002 22.5C5.7002 23.8806 4.5808 24.9999 3.2002 25C1.81948 25 0.700195 23.8807 0.700195 22.5C0.700195 21.1193 1.81948 20 3.2002 20ZM3.12207 0C3.98449 0 4.67776 0.276906 5.20703 0.829102C5.73375 1.38178 5.99746 2.15188 5.99805 3.13867C5.99805 3.86374 5.94322 5.05881 5.83398 6.72363L5.25195 15.2646C5.143 16.3712 4.95968 17.1957 4.70703 17.7363C4.45052 18.2766 3.99635 18.5478 3.34082 18.5479C3.21943 18.5479 3.10797 18.528 2.99902 18.5078C2.88969 18.528 2.77833 18.5479 2.65527 18.5479C2.00144 18.5478 1.54537 18.2767 1.29102 17.7363C1.03651 17.1957 0.854758 16.3712 0.746094 15.2646L0.164062 6.72363C0.054826 5.05881 0 3.86374 0 3.13867C1.96185e-05 2.15188 0.263726 1.38178 0.791016 0.829102C1.31824 0.276612 2.01268 0.00034368 2.87402 0C2.92031 0 2.95447 0.0100235 2.99902 0.0117188C3.04357 0.0100393 3.07755 2.65445e-05 3.12207 0Z" fill="#B61F1F"/>
</svg>
