<svg width="34" height="34" viewBox="0 0 34 34" fill="none" xmlns="http://www.w3.org/2000/svg">
<path d="M25.25 25.25L32 32M10.25 15.5H20.75M15.5 10.25V20.75M29 15.5C29 11.9196 27.5777 8.4858 25.0459 5.95406C22.5142 3.42232 19.0804 2 15.5 2C11.9196 2 8.4858 3.42232 5.95406 5.95406C3.42232 8.4858 2 11.9196 2 15.5C2 19.0804 3.42232 22.5142 5.95406 25.0459C8.4858 27.5777 11.9196 29 15.5 29C19.0804 29 22.5142 27.5777 25.0459 25.0459C27.5777 22.5142 29 19.0804 29 15.5Z" stroke="black" stroke-width="3" stroke-linecap="round" stroke-linejoin="round"/>
</svg>
