<svg width="20" height="20" viewBox="0 0 20 20" fill="none" xmlns="http://www.w3.org/2000/svg">
<path d="M16.8231 15.3687L20 18.5663L18.5663 20L15.3481 16.8334C14.6364 17.2769 13.7906 17.5348 12.8932 17.5348C10.3146 17.5348 8.25168 15.4719 8.25168 12.8932C8.25168 10.3146 10.3146 8.25168 12.8932 8.25168C15.4719 8.25168 17.5348 10.3146 17.5348 12.8932C17.5348 13.8009 17.2769 14.657 16.8231 15.3687ZM12.8932 15.4719C13.5771 15.4719 14.233 15.2002 14.7166 14.7166C15.2002 14.233 15.4719 13.5771 15.4719 12.8932C15.4719 12.2093 15.2002 11.5535 14.7166 11.0699C14.233 10.5863 13.5771 10.3146 12.8932 10.3146C12.2093 10.3146 11.5535 10.5863 11.0699 11.0699C10.5863 11.5535 10.3146 12.2093 10.3146 12.8932C10.3146 13.5771 10.5863 14.233 11.0699 14.7166C11.5535 15.2002 12.2093 15.4719 12.8932 15.4719ZM18.5663 0V2.06292H0V0H18.5663ZM0 12.3775V10.3146H6.18876V12.3775H0ZM0 7.22022V5.1573H18.5663V7.22022H16.4724C15.4306 6.5704 14.2032 6.18876 12.8932 6.18876C11.5833 6.18876 10.3559 6.5704 9.31408 7.22022H0Z" fill="black"/>
</svg>
