<svg width="24" height="24" viewBox="0 0 24 24" fill="none" xmlns="http://www.w3.org/2000/svg">
<path d="M9.98865 13.0067C10.4205 13.5847 10.9716 14.0629 11.6043 14.4089C12.2371 14.755 12.9368 14.9608 13.656 15.0123C14.3752 15.0639 15.0971 14.96 15.7726 14.7078C16.4482 14.4555 17.0617 14.0608 17.5714 13.5503L20.5885 10.5302C21.5044 9.58092 22.0113 8.30946 21.9998 6.9897C21.9884 5.66995 21.4595 4.4075 20.5272 3.47426C19.5949 2.54102 18.3337 2.01166 17.0153 2.00019C15.6969 1.98872 14.4267 2.49606 13.4783 3.41295L11.7486 5.13438" stroke="black" stroke-width="2.5" stroke-linecap="round" stroke-linejoin="round"/>
<path d="M14.0114 10.9936C13.5795 10.4156 13.0284 9.93742 12.3957 9.59136C11.7629 9.2453 11.0632 9.03952 10.344 8.98796C9.6248 8.9364 8.90293 9.04027 8.22736 9.29253C7.55179 9.54479 6.93832 9.93954 6.42855 10.45L3.41153 13.4701C2.49557 14.4194 1.98873 15.6908 2.00019 17.0106C2.01165 18.3304 2.54048 19.5928 3.47278 20.526C4.40508 21.4593 5.66626 21.9886 6.98469 22.0001C8.30311 22.0116 9.57329 21.5042 10.5217 20.5874L12.2414 18.8659" stroke="black" stroke-width="2.5" stroke-linecap="round" stroke-linejoin="round"/>
</svg>
