<svg width="20" height="20" viewBox="0 0 20 20" fill="none" xmlns="http://www.w3.org/2000/svg">
<path d="M6.66667 20C4.80952 20 3.23429 19.1807 1.94095 17.5421C0.647619 15.9035 0.000634921 13.9073 0 11.5535C0 9.4017 0.559682 7.52619 1.67905 5.92699C2.79841 4.3278 4.19905 3.40794 5.88095 3.16742L5.02381 2.02111C4.84921 1.77979 4.7619 1.49824 4.7619 1.17647C4.7619 0.8547 4.84921 0.583207 5.02381 0.361991C5.21428 0.120663 5.44444 0 5.71428 0C5.98413 0 6.20635 0.110608 6.38095 0.331825L8.85714 3.46908C9.04762 3.7104 9.14286 3.99195 9.14286 4.31372C9.14286 4.63549 9.04762 4.91704 8.85714 5.15837L6.40476 8.26545C6.21428 8.50678 5.98825 8.62744 5.72667 8.62744C5.46508 8.62744 5.23873 8.50678 5.04762 8.26545C4.87302 8.02413 4.78571 7.73775 4.78571 7.40633C4.78571 7.07491 4.87302 6.79818 5.04762 6.57616L5.78571 5.64102C4.65873 5.92257 3.73016 6.61638 3 7.72247C2.26984 8.82855 1.90476 10.1056 1.90476 11.5535C1.90476 13.2227 2.36921 14.6457 3.29809 15.8226C4.22698 16.9995 5.34984 17.5875 6.66667 17.5867H8.57143C8.84127 17.5867 9.06762 17.7025 9.25047 17.9342C9.43333 18.1659 9.52444 18.4523 9.52381 18.7933C9.52317 19.1344 9.43174 19.4212 9.24952 19.6537C9.0673 19.8862 8.84127 20.0016 8.57143 20H6.66667ZM12.381 9.14026C12.1111 9.14026 11.8851 9.02443 11.7029 8.79275C11.5206 8.56108 11.4292 8.2747 11.4286 7.93363V1.90045C11.4286 1.55857 11.52 1.2722 11.7029 1.04133C11.8857 0.810457 12.1117 0.69462 12.381 0.693815H19.0476C19.3175 0.693815 19.5438 0.809653 19.7267 1.04133C19.9095 1.273 20.0006 1.55938 20 1.90045V7.93363C20 8.27551 19.9086 8.56229 19.7257 8.79396C19.5429 9.02563 19.3168 9.14107 19.0476 9.14026H12.381ZM12.381 20C12.1111 20 11.8851 19.8841 11.7029 19.6525C11.5206 19.4208 11.4292 19.1344 11.4286 18.7933V12.7602C11.4286 12.4183 11.52 12.1319 11.7029 11.901C11.8857 11.6702 12.1117 11.5543 12.381 11.5535H19.0476C19.3175 11.5535 19.5438 11.6694 19.7267 11.901C19.9095 12.1327 20.0006 12.4191 20 12.7602V18.7933C20 19.1352 19.9086 19.422 19.7257 19.6537C19.5429 19.8854 19.3168 20.0008 19.0476 20H12.381ZM13.3333 17.5867H18.0952V13.9668H13.3333V17.5867Z" fill="black"/>
</svg>
