<svg width="3" height="15" viewBox="0 0 3 15" fill="none" xmlns="http://www.w3.org/2000/svg">
<path d="M3 7.5C3 7.70735 2.9612 7.91267 2.88582 8.10424C2.81044 8.2958 2.69995 8.46987 2.56066 8.61648C2.42137 8.7631 2.25601 8.87941 2.07402 8.95876C1.89204 9.03811 1.69698 9.07895 1.5 9.07895C1.30302 9.07895 1.10796 9.03811 0.925975 8.95876C0.743987 8.87941 0.578628 8.7631 0.43934 8.61648C0.300053 8.46987 0.189563 8.2958 0.114181 8.10424C0.0387987 7.91267 -8.3022e-09 7.70735 0 7.5C1.67671e-08 7.08124 0.158036 6.67963 0.43934 6.38352C0.720645 6.08741 1.10218 5.92105 1.5 5.92105C1.89782 5.92105 2.27936 6.08741 2.56066 6.38352C2.84196 6.67963 3 7.08124 3 7.5ZM3 1.57895C3 1.7863 2.9612 1.99162 2.88582 2.18318C2.81044 2.37475 2.69995 2.54881 2.56066 2.69543C2.42137 2.84205 2.25601 2.95835 2.07402 3.0377C1.89204 3.11705 1.69698 3.1579 1.5 3.1579C1.30302 3.1579 1.10796 3.11705 0.925975 3.0377C0.743987 2.95835 0.578628 2.84205 0.43934 2.69543C0.300053 2.54881 0.189563 2.37475 0.114181 2.18318C0.0387987 1.99162 -8.3022e-09 1.7863 0 1.57895C1.67671e-08 1.16019 0.158036 0.758574 0.43934 0.462464C0.720645 0.166354 1.10218 2.96141e-07 1.5 2.96141e-07C1.89782 2.96141e-07 2.27936 0.166354 2.56066 0.462464C2.84196 0.758574 3 1.16019 3 1.57895ZM3 13.4211C3 13.6284 2.9612 13.8337 2.88582 14.0253C2.81044 14.2169 2.69995 14.3909 2.56066 14.5375C2.42137 14.6842 2.25601 14.8005 2.07402 14.8798C1.89204 14.9592 1.69698 15 1.5 15C1.30302 15 1.10796 14.9592 0.925975 14.8798C0.743987 14.8005 0.578628 14.6842 0.43934 14.5375C0.300053 14.3909 0.189563 14.2169 0.114181 14.0253C0.0387987 13.8337 -8.3022e-09 13.6284 0 13.4211C1.67671e-08 13.0023 0.158036 12.6007 0.43934 12.3046C0.720645 12.0085 1.10218 11.8421 1.5 11.8421C1.89782 11.8421 2.27936 12.0085 2.56066 12.3046C2.84196 12.6007 3 13.0023 3 13.4211Z" fill="#2A2A2C"/>
</svg>
