<svg width="38" height="49" viewBox="0 0 38 49" fill="none" xmlns="http://www.w3.org/2000/svg">
<g filter="url(#filter0_di_628_580)">
<rect x="12.6036" y="40.2598" width="10.5986" height="2.40747" rx="1.20374" fill="#E9E9E9" stroke="url(#paint0_linear_628_580)"/>
<g filter="url(#filter1_i_628_580)">
<path d="M3 16.436C3 12.6074 4.57723 8.9355 7.38471 6.22822C10.1922 3.52093 13.9999 2 17.9703 2C21.9407 2 25.7484 3.52093 28.5559 6.22822C31.3634 8.9355 32.9406 12.6074 32.9406 16.436C32.9424 18.7604 32.3596 21.0506 31.2421 23.1102C30.1247 25.1697 28.506 26.9373 26.5248 28.2612L25.3656 33.553C25.2122 34.5284 24.7012 35.4185 23.9255 36.0617C23.1498 36.705 22.1607 37.0588 21.1376 37.0589H14.803C13.7799 37.0588 12.7908 36.705 12.0151 36.0617C11.2394 35.4185 10.7284 34.5284 10.575 33.553L9.41585 28.2839C7.43396 26.9552 5.81519 25.1836 4.6979 23.1203C3.58062 21.0571 2.99805 18.7636 3 16.436Z" fill="url(#paint1_linear_628_580)"/>
</g>
<path d="M3 16.436C3 12.6074 4.57723 8.9355 7.38471 6.22822C10.1922 3.52093 13.9999 2 17.9703 2C21.9407 2 25.7484 3.52093 28.5559 6.22822C31.3634 8.9355 32.9406 12.6074 32.9406 16.436C32.9424 18.7604 32.3596 21.0506 31.2421 23.1102C30.1247 25.1697 28.506 26.9373 26.5248 28.2612L25.3656 33.553C25.2122 34.5284 24.7012 35.4185 23.9255 36.0617C23.1498 36.705 22.1607 37.0588 21.1376 37.0589H14.803C13.7799 37.0588 12.7908 36.705 12.0151 36.0617C11.2394 35.4185 10.7284 34.5284 10.575 33.553L9.41585 28.2839C7.43396 26.9552 5.81519 25.1836 4.6979 23.1203C3.58062 21.0571 2.99805 18.7636 3 16.436Z" stroke="url(#paint2_linear_628_580)" stroke-linecap="round" stroke-linejoin="round"/>
<path d="M9.53589 28.447L26.4047 28.3828" stroke="url(#paint3_linear_628_580)" stroke-linecap="round"/>
</g>
<defs>
<filter id="filter0_di_628_580" x="0.5" y="-0.5" width="36.9406" height="48.668" filterUnits="userSpaceOnUse" color-interpolation-filters="sRGB">
<feFlood flood-opacity="0" result="BackgroundImageFix"/>
<feColorMatrix in="SourceAlpha" type="matrix" values="0 0 0 0 0 0 0 0 0 0 0 0 0 0 0 0 0 0 127 0" result="hardAlpha"/>
<feOffset dx="1" dy="2"/>
<feGaussianBlur stdDeviation="1.5"/>
<feComposite in2="hardAlpha" operator="out"/>
<feColorMatrix type="matrix" values="0 0 0 0 0 0 0 0 0 0 0 0 0 0 0 0 0 0 0.25 0"/>
<feBlend mode="normal" in2="BackgroundImageFix" result="effect1_dropShadow_628_580"/>
<feBlend mode="normal" in="SourceGraphic" in2="effect1_dropShadow_628_580" result="shape"/>
<feColorMatrix in="SourceAlpha" type="matrix" values="0 0 0 0 0 0 0 0 0 0 0 0 0 0 0 0 0 0 127 0" result="hardAlpha"/>
<feOffset dx="-2" dy="-2"/>
<feGaussianBlur stdDeviation="1"/>
<feComposite in2="hardAlpha" operator="arithmetic" k2="-1" k3="1"/>
<feColorMatrix type="matrix" values="0 0 0 0 0 0 0 0 0 0 0 0 0 0 0 0 0 0 0.25 0"/>
<feBlend mode="normal" in2="shape" result="effect2_innerShadow_628_580"/>
</filter>
<filter id="filter1_i_628_580" x="2.5" y="0.5" width="30.9406" height="37.0586" filterUnits="userSpaceOnUse" color-interpolation-filters="sRGB">
<feFlood flood-opacity="0" result="BackgroundImageFix"/>
<feBlend mode="normal" in="SourceGraphic" in2="BackgroundImageFix" result="shape"/>
<feColorMatrix in="SourceAlpha" type="matrix" values="0 0 0 0 0 0 0 0 0 0 0 0 0 0 0 0 0 0 127 0" result="hardAlpha"/>
<feOffset dy="-1"/>
<feGaussianBlur stdDeviation="2.5"/>
<feComposite in2="hardAlpha" operator="arithmetic" k2="-1" k3="1"/>
<feColorMatrix type="matrix" values="0 0 0 0 0 0 0 0 0 0 0 0 0 0 0 0 0 0 0.25 0"/>
<feBlend mode="normal" in2="shape" result="effect1_innerShadow_628_580"/>
</filter>
<linearGradient id="paint0_linear_628_580" x1="17.9029" y1="39.7598" x2="17.9029" y2="43.1672" gradientUnits="userSpaceOnUse">
<stop stop-color="#848484"/>
<stop offset="1" stop-color="#555555"/>
</linearGradient>
<linearGradient id="paint1_linear_628_580" x1="17.9703" y1="2" x2="17.9703" y2="37.0589" gradientUnits="userSpaceOnUse">
<stop stop-color="white"/>
<stop offset="0.346154" stop-color="#FDFDFD"/>
<stop offset="0.65" stop-color="#F4F4F4"/>
<stop offset="0.9" stop-color="#E9E9E9"/>
</linearGradient>
<linearGradient id="paint2_linear_628_580" x1="17.9703" y1="2" x2="17.9703" y2="37.0589" gradientUnits="userSpaceOnUse">
<stop stop-color="#848484"/>
<stop offset="1" stop-color="#555555"/>
</linearGradient>
<linearGradient id="paint3_linear_628_580" x1="17.9703" y1="28.3828" x2="17.9703" y2="28.447" gradientUnits="userSpaceOnUse">
<stop stop-color="#848484"/>
<stop offset="1" stop-color="#555555"/>
</linearGradient>
</defs>
</svg>
