<svg width="38" height="49" viewBox="0 0 38 49" fill="none" xmlns="http://www.w3.org/2000/svg">
<g filter="url(#filter0_di_629_818)">
<rect x="12.6035" y="40.2598" width="10.5986" height="2.40747" rx="1.20374" fill="url(#paint0_linear_629_818)" stroke="url(#paint1_linear_629_818)"/>
<path d="M3 16.436C3 12.6074 4.57723 8.9355 7.38471 6.22822C10.1922 3.52093 13.9999 2 17.9703 2C21.9407 2 25.7484 3.52093 28.5559 6.22822C31.3634 8.9355 32.9406 12.6074 32.9406 16.436C32.9424 18.7604 32.3596 21.0506 31.2421 23.1102C30.1247 25.1697 28.506 26.9373 26.5248 28.2612L25.3656 33.553C25.2122 34.5284 24.7012 35.4185 23.9255 36.0617C23.1498 36.705 22.1607 37.0588 21.1376 37.0589H14.803C13.7799 37.0588 12.7908 36.705 12.0151 36.0617C11.2394 35.4185 10.7284 34.5284 10.575 33.553L9.41585 28.2839C7.43396 26.9553 5.81519 25.1836 4.6979 23.1203C3.58062 21.0571 2.99805 18.7636 3 16.436Z" fill="url(#paint2_linear_629_818)" stroke="url(#paint3_linear_629_818)" stroke-linecap="round" stroke-linejoin="round"/>
<path d="M9.53589 28.4451L26.4047 28.3809" stroke="url(#paint4_linear_629_818)" stroke-linecap="round"/>
<g filter="url(#filter1_di_629_818)">
<path d="M17.908 6.36274C19.9469 6.36274 21.9022 7.07982 23.3439 8.35622C24.7856 9.63262 25.5955 11.3638 25.5955 13.1689C25.5955 17.7063 17.908 25.3633 17.908 25.3633C17.908 25.3633 10.2206 17.7063 10.2206 13.1689C10.2206 11.3638 11.0305 9.63262 12.4722 8.35622C13.9139 7.07982 15.8692 6.36274 17.908 6.36274Z" fill="url(#paint5_linear_629_818)"/>
<path d="M17.909 24.6475C17.7032 24.4333 17.4164 24.1314 17.076 23.7588C16.3614 22.9768 15.41 21.8881 14.4597 20.6611C13.5081 19.4324 12.5653 18.0752 11.8631 16.7539C11.1545 15.4208 10.7205 14.1795 10.7205 13.1689C10.7205 11.5175 11.4609 9.91913 12.8035 8.73047C14.148 7.54007 15.9834 6.86231 17.908 6.8623C19.8325 6.8623 21.6679 7.54008 23.0125 8.73047C24.3551 9.91913 25.0955 11.5175 25.0955 13.1689C25.0955 14.1795 24.6615 15.4208 23.9529 16.7539C23.2506 18.0752 22.3079 19.4324 21.3562 20.6611C20.406 21.8881 19.4546 22.9768 18.74 23.7588C18.4 24.1309 18.1147 24.4334 17.909 24.6475Z" stroke="url(#paint6_linear_629_818)"/>
</g>
</g>
<defs>
<filter id="filter0_di_629_818" x="0.5" y="-0.5" width="36.9406" height="48.668" filterUnits="userSpaceOnUse" color-interpolation-filters="sRGB">
<feFlood flood-opacity="0" result="BackgroundImageFix"/>
<feColorMatrix in="SourceAlpha" type="matrix" values="0 0 0 0 0 0 0 0 0 0 0 0 0 0 0 0 0 0 127 0" result="hardAlpha"/>
<feOffset dx="1" dy="2"/>
<feGaussianBlur stdDeviation="1.5"/>
<feComposite in2="hardAlpha" operator="out"/>
<feColorMatrix type="matrix" values="0 0 0 0 0 0 0 0 0 0 0 0 0 0 0 0 0 0 0.25 0"/>
<feBlend mode="normal" in2="BackgroundImageFix" result="effect1_dropShadow_629_818"/>
<feBlend mode="normal" in="SourceGraphic" in2="effect1_dropShadow_629_818" result="shape"/>
<feColorMatrix in="SourceAlpha" type="matrix" values="0 0 0 0 0 0 0 0 0 0 0 0 0 0 0 0 0 0 127 0" result="hardAlpha"/>
<feOffset dx="-2" dy="-2"/>
<feGaussianBlur stdDeviation="1"/>
<feComposite in2="hardAlpha" operator="arithmetic" k2="-1" k3="1"/>
<feColorMatrix type="matrix" values="0 0 0 0 0 0 0 0 0 0 0 0 0 0 0 0 0 0 0.25 0"/>
<feBlend mode="normal" in2="shape" result="effect2_innerShadow_629_818"/>
</filter>
<filter id="filter1_di_629_818" x="8.22058" y="4.36328" width="21.3749" height="25" filterUnits="userSpaceOnUse" color-interpolation-filters="sRGB">
<feFlood flood-opacity="0" result="BackgroundImageFix"/>
<feColorMatrix in="SourceAlpha" type="matrix" values="0 0 0 0 0 0 0 0 0 0 0 0 0 0 0 0 0 0 127 0" result="hardAlpha"/>
<feOffset dx="1" dy="1"/>
<feGaussianBlur stdDeviation="1.5"/>
<feComposite in2="hardAlpha" operator="out"/>
<feColorMatrix type="matrix" values="0 0 0 0 0 0 0 0 0 0 0 0 0 0 0 0 0 0 0.25 0"/>
<feBlend mode="normal" in2="BackgroundImageFix" result="effect1_dropShadow_629_818"/>
<feBlend mode="normal" in="SourceGraphic" in2="effect1_dropShadow_629_818" result="shape"/>
<feColorMatrix in="SourceAlpha" type="matrix" values="0 0 0 0 0 0 0 0 0 0 0 0 0 0 0 0 0 0 127 0" result="hardAlpha"/>
<feOffset dx="-1" dy="-1"/>
<feGaussianBlur stdDeviation="1.5"/>
<feComposite in2="hardAlpha" operator="arithmetic" k2="-1" k3="1"/>
<feColorMatrix type="matrix" values="0 0 0 0 0 0 0 0 0 0 0 0 0 0 0 0 0 0 0.25 0"/>
<feBlend mode="normal" in2="shape" result="effect2_innerShadow_629_818"/>
</filter>
<linearGradient id="paint0_linear_629_818" x1="17.9029" y1="39.7598" x2="17.9029" y2="43.1672" gradientUnits="userSpaceOnUse">
<stop stop-color="white"/>
<stop offset="0.346154" stop-color="#FDFDFD"/>
<stop offset="0.65" stop-color="#F4F4F4"/>
<stop offset="0.9" stop-color="#E9E9E9"/>
</linearGradient>
<linearGradient id="paint1_linear_629_818" x1="17.9029" y1="39.7598" x2="17.9029" y2="43.1672" gradientUnits="userSpaceOnUse">
<stop stop-color="#848484"/>
<stop offset="1" stop-color="#555555"/>
</linearGradient>
<linearGradient id="paint2_linear_629_818" x1="17.9703" y1="2" x2="17.9703" y2="37.0589" gradientUnits="userSpaceOnUse">
<stop stop-color="white"/>
<stop offset="0.346154" stop-color="#FDFDFD"/>
<stop offset="0.65" stop-color="#F4F4F4"/>
<stop offset="0.9" stop-color="#E9E9E9"/>
</linearGradient>
<linearGradient id="paint3_linear_629_818" x1="17.9703" y1="2" x2="17.9703" y2="37.0589" gradientUnits="userSpaceOnUse">
<stop stop-color="#848484"/>
<stop offset="1" stop-color="#555555"/>
</linearGradient>
<linearGradient id="paint4_linear_629_818" x1="17.9703" y1="28.3809" x2="17.9703" y2="28.4451" gradientUnits="userSpaceOnUse">
<stop stop-color="#848484"/>
<stop offset="1" stop-color="#555555"/>
</linearGradient>
<linearGradient id="paint5_linear_629_818" x1="17.908" y1="6.36274" x2="17.908" y2="25.3633" gradientUnits="userSpaceOnUse">
<stop stop-color="#FFFD05"/>
<stop offset="0.3" stop-color="#F2F00E"/>
<stop offset="0.6" stop-color="#E8E616"/>
<stop offset="1" stop-color="#E0DE18"/>
</linearGradient>
<linearGradient id="paint6_linear_629_818" x1="17.908" y1="25.3633" x2="17.908" y2="6.36274" gradientUnits="userSpaceOnUse">
<stop stop-color="#848484"/>
<stop offset="1" stop-color="#555555"/>
</linearGradient>
</defs>
</svg>
