<svg width="66" height="80" viewBox="0 0 66 80" fill="none" xmlns="http://www.w3.org/2000/svg">
<g filter="url(#filter0_ddii_722_101)">
<rect x="18.5622" y="56.8473" width="14.6955" height="3.75243" rx="1.87622" fill="#FFFFF5" stroke="url(#paint0_linear_722_101)" stroke-width="0.8"/>
<path d="M6.00001 25.2867C6.00001 20.1716 8.10714 15.2659 11.8579 11.649C15.6086 8.03199 20.6957 6 26 6C31.3043 6 36.3914 8.03199 40.1421 11.649C43.8929 15.2659 46 20.1716 46 25.2867C46.0024 28.3922 45.2237 31.4519 43.7309 34.2035C42.238 36.9551 40.0754 39.3165 37.4286 41.0853L35.88 48.1553C35.675 49.4584 34.9924 50.6476 33.956 51.5069C32.9197 52.3663 31.5982 52.839 30.2314 52.8392H21.7686C20.4018 52.839 19.0803 52.3663 18.044 51.5069C17.0076 50.6476 16.325 49.4584 16.12 48.1553L14.5714 41.1156C11.9237 39.3406 9.76103 36.9736 8.26836 34.2171C6.77569 31.4605 5.9974 28.3965 6.00001 25.2867Z" fill="url(#paint1_linear_722_101)"/>
<path d="M6.00001 25.2867C6.00001 20.1716 8.10714 15.2659 11.8579 11.649C15.6086 8.03199 20.6957 6 26 6C31.3043 6 36.3914 8.03199 40.1421 11.649C43.8929 15.2659 46 20.1716 46 25.2867C46.0024 28.3922 45.2237 31.4519 43.7309 34.2035C42.238 36.9551 40.0754 39.3165 37.4286 41.0853L35.88 48.1553C35.675 49.4584 34.9924 50.6476 33.956 51.5069C32.9197 52.3663 31.5982 52.839 30.2314 52.8392H21.7686C20.4018 52.839 19.0803 52.3663 18.044 51.5069C17.0076 50.6476 16.325 49.4584 16.12 48.1553L14.5714 41.1156C11.9237 39.3406 9.76103 36.9736 8.26836 34.2171C6.77569 31.4605 5.9974 28.3965 6.00001 25.2867Z" fill="url(#paint2_radial_722_101)"/>
<path d="M37.4286 41.0853C40.0754 39.3165 42.238 36.9551 43.7309 34.2035C45.2237 31.4519 46.0024 28.3922 46 25.2867C46 20.1716 43.8929 15.2659 40.1421 11.649C36.3914 8.03199 31.3043 6 26 6C20.6957 6 15.6086 8.03199 11.8579 11.649C8.10714 15.2659 6.00001 20.1716 6.00001 25.2867C5.9974 28.3965 6.77569 31.4605 8.26836 34.2171C9.76103 36.9736 11.9237 39.3406 14.5714 41.1156M37.4286 41.0853L35.88 48.1553C35.675 49.4584 34.9924 50.6476 33.956 51.5069C32.9197 52.3663 31.5982 52.839 30.2314 52.8392H21.7686C20.4018 52.839 19.0803 52.3663 18.044 51.5069C17.0076 50.6476 16.325 49.4584 16.12 48.1553L14.5714 41.1156M37.4286 41.0853L14.5714 41.1156" stroke="url(#paint3_linear_722_101)" stroke-width="0.8" stroke-linecap="round" stroke-linejoin="round"/>
<path d="M14.7318 41.3338L37.2682 41.248" stroke="#F8F60A" stroke-width="0.8" stroke-linecap="round"/>
</g>
<g filter="url(#filter1_di_722_101)">
<path d="M25.6221 12.6795C28.346 12.6795 30.9582 13.6375 32.8843 15.3428C34.8103 17.0481 35.8924 19.361 35.8924 21.7726C35.8924 27.8347 25.6221 38.0645 25.6221 38.0645C25.6221 38.0645 15.3518 27.8347 15.3518 21.7726C15.3518 19.361 16.4339 17.0481 18.3599 15.3428C20.286 13.6375 22.8983 12.6795 25.6221 12.6795Z" fill="url(#paint4_linear_722_101)"/>
<path d="M25.6221 12.6795C28.346 12.6795 30.9582 13.6375 32.8843 15.3428C34.8103 17.0481 35.8924 19.361 35.8924 21.7726C35.8924 27.8347 25.6221 38.0645 25.6221 38.0645C25.6221 38.0645 15.3518 27.8347 15.3518 21.7726C15.3518 19.361 16.4339 17.0481 18.3599 15.3428C20.286 13.6375 22.8983 12.6795 25.6221 12.6795Z" fill="url(#paint5_radial_722_101)"/>
<path d="M25.5408 37.2666C25.2626 36.9778 24.8646 36.5574 24.3865 36.0342C23.4299 34.9872 22.1557 33.5295 20.8826 31.8857C19.6081 30.2401 18.3427 28.4175 17.3982 26.6406C16.4476 24.852 15.8514 23.1641 15.8514 21.7725C15.8514 19.5145 16.8643 17.3343 18.6912 15.7168C20.5201 14.0976 23.0124 13.1797 25.6219 13.1797C28.2313 13.1797 30.7236 14.0977 32.5525 15.7168C34.3794 17.3343 35.3923 19.5145 35.3924 21.7725C35.3924 23.1641 34.7971 24.852 33.8465 26.6406C32.902 28.4175 31.6366 30.2401 30.3621 31.8857C29.089 33.5295 27.8149 34.9871 26.8582 36.0342C26.3801 36.5574 25.9811 36.9778 25.7029 37.2666C25.6746 37.296 25.6476 37.324 25.6219 37.3506C25.5961 37.324 25.5691 37.296 25.5408 37.2666Z" stroke="url(#paint6_linear_722_101)"/>
</g>
<defs>
<filter id="filter0_ddii_722_101" x="0.600006" y="0.599609" width="64.8" height="79.4004" filterUnits="userSpaceOnUse" color-interpolation-filters="sRGB">
<feFlood flood-opacity="0" result="BackgroundImageFix"/>
<feColorMatrix in="SourceAlpha" type="matrix" values="0 0 0 0 0 0 0 0 0 0 0 0 0 0 0 0 0 0 127 0" result="hardAlpha"/>
<feOffset dx="2" dy="3"/>
<feGaussianBlur stdDeviation="2.5"/>
<feComposite in2="hardAlpha" operator="out"/>
<feColorMatrix type="matrix" values="0 0 0 0 0 0 0 0 0 0 0 0 0 0 0 0 0 0 0.15 0"/>
<feBlend mode="normal" in2="BackgroundImageFix" result="effect1_dropShadow_722_101"/>
<feColorMatrix in="SourceAlpha" type="matrix" values="0 0 0 0 0 0 0 0 0 0 0 0 0 0 0 0 0 0 127 0" result="hardAlpha"/>
<feOffset dx="7" dy="7"/>
<feGaussianBlur stdDeviation="6"/>
<feComposite in2="hardAlpha" operator="out"/>
<feColorMatrix type="matrix" values="0 0 0 0 0 0 0 0 0 0 0 0 0 0 0 0 0 0 0.15 0"/>
<feBlend mode="normal" in2="effect1_dropShadow_722_101" result="effect2_dropShadow_722_101"/>
<feBlend mode="normal" in="SourceGraphic" in2="effect2_dropShadow_722_101" result="shape"/>
<feColorMatrix in="SourceAlpha" type="matrix" values="0 0 0 0 0 0 0 0 0 0 0 0 0 0 0 0 0 0 127 0" result="hardAlpha"/>
<feOffset dx="-5" dy="-5"/>
<feGaussianBlur stdDeviation="10.5"/>
<feComposite in2="hardAlpha" operator="arithmetic" k2="-1" k3="1"/>
<feColorMatrix type="matrix" values="0 0 0 0 0 0 0 0 0 0 0 0 0 0 0 0 0 0 0.1 0"/>
<feBlend mode="normal" in2="shape" result="effect3_innerShadow_722_101"/>
<feColorMatrix in="SourceAlpha" type="matrix" values="0 0 0 0 0 0 0 0 0 0 0 0 0 0 0 0 0 0 127 0" result="hardAlpha"/>
<feOffset dx="-2" dy="-3"/>
<feGaussianBlur stdDeviation="2"/>
<feComposite in2="hardAlpha" operator="arithmetic" k2="-1" k3="1"/>
<feColorMatrix type="matrix" values="0 0 0 0 0 0 0 0 0 0 0 0 0 0 0 0 0 0 0.15 0"/>
<feBlend mode="normal" in2="effect3_innerShadow_722_101" result="effect4_innerShadow_722_101"/>
</filter>
<filter id="filter1_di_722_101" x="13.3518" y="10.6797" width="26.5405" height="31.3848" filterUnits="userSpaceOnUse" color-interpolation-filters="sRGB">
<feFlood flood-opacity="0" result="BackgroundImageFix"/>
<feColorMatrix in="SourceAlpha" type="matrix" values="0 0 0 0 0 0 0 0 0 0 0 0 0 0 0 0 0 0 127 0" result="hardAlpha"/>
<feOffset dx="1" dy="1"/>
<feGaussianBlur stdDeviation="1.5"/>
<feComposite in2="hardAlpha" operator="out"/>
<feColorMatrix type="matrix" values="0 0 0 0 0 0 0 0 0 0 0 0 0 0 0 0 0 0 0.25 0"/>
<feBlend mode="normal" in2="BackgroundImageFix" result="effect1_dropShadow_722_101"/>
<feBlend mode="normal" in="SourceGraphic" in2="effect1_dropShadow_722_101" result="shape"/>
<feColorMatrix in="SourceAlpha" type="matrix" values="0 0 0 0 0 0 0 0 0 0 0 0 0 0 0 0 0 0 127 0" result="hardAlpha"/>
<feOffset dx="-1" dy="-1"/>
<feGaussianBlur stdDeviation="1.5"/>
<feComposite in2="hardAlpha" operator="arithmetic" k2="-1" k3="1"/>
<feColorMatrix type="matrix" values="0 0 0 0 0 0 0 0 0 0 0 0 0 0 0 0 0 0 0.25 0"/>
<feBlend mode="normal" in2="shape" result="effect2_innerShadow_722_101"/>
</filter>
<linearGradient id="paint0_linear_722_101" x1="25.9099" y1="56.4473" x2="25.9099" y2="60.9997" gradientUnits="userSpaceOnUse">
<stop stop-color="#EEEC12"/>
</linearGradient>
<linearGradient id="paint1_linear_722_101" x1="26" y1="6" x2="26" y2="52.8392" gradientUnits="userSpaceOnUse">
<stop stop-color="#FAFAFA"/>
<stop offset="0.350962" stop-color="#FEFEF1"/>
<stop offset="0.600962" stop-color="#FEFEF1"/>
<stop offset="1" stop-color="#EDEDE2"/>
</linearGradient>
<radialGradient id="paint2_radial_722_101" cx="0" cy="0" r="1" gradientUnits="userSpaceOnUse" gradientTransform="translate(16.0198 15.1022) rotate(51.4025) scale(48.1842 36.7411)">
<stop stop-color="white" stop-opacity="0.8"/>
<stop offset="0.14224" stop-color="white" stop-opacity="0.6"/>
<stop offset="0.288169" stop-color="white" stop-opacity="0.3"/>
<stop offset="0.6195" stop-color="white" stop-opacity="0.2"/>
<stop offset="0.838833" stop-color="white" stop-opacity="0.15"/>
<stop offset="1" stop-color="white" stop-opacity="0.35"/>
</radialGradient>
<linearGradient id="paint3_linear_722_101" x1="9.33994" y1="10.008" x2="41.4046" y2="54.7637" gradientUnits="userSpaceOnUse">
<stop stop-color="#FFFD05"/>
<stop offset="0.35" stop-color="#FFFD05"/>
<stop offset="1" stop-color="#727102"/>
</linearGradient>
<linearGradient id="paint4_linear_722_101" x1="18" y1="16" x2="28" y2="36.5" gradientUnits="userSpaceOnUse">
<stop stop-color="#FFFD05"/>
<stop offset="0.25" stop-color="#F6F40B"/>
<stop offset="0.55" stop-color="#E4E308"/>
<stop offset="0.75" stop-color="#C3C200"/>
<stop offset="1" stop-color="#70700C"/>
</linearGradient>
<radialGradient id="paint5_radial_722_101" cx="0" cy="0" r="1" gradientUnits="userSpaceOnUse" gradientTransform="translate(19 18.5) rotate(58.3925) scale(22.8965 17.2279)">
<stop stop-color="white" stop-opacity="0.8"/>
<stop offset="0.14224" stop-color="white" stop-opacity="0.6"/>
<stop offset="0.288169" stop-color="white" stop-opacity="0.3"/>
<stop offset="0.6195" stop-color="white" stop-opacity="0.2"/>
<stop offset="0.838833" stop-color="white" stop-opacity="0.15"/>
<stop offset="1" stop-color="white" stop-opacity="0.35"/>
</radialGradient>
<linearGradient id="paint6_linear_722_101" x1="18.5" y1="16" x2="33.5006" y2="39.4996" gradientUnits="userSpaceOnUse">
<stop stop-color="#FFFD05"/>
<stop offset="0.25" stop-color="#FFFD05"/>
<stop offset="1" stop-color="#5E5E0A"/>
</linearGradient>
</defs>
</svg>
