<svg width="66" height="80" viewBox="0 0 66 80" fill="none" xmlns="http://www.w3.org/2000/svg">
<g filter="url(#filter0_ddii_736_410)">
<rect x="18.5622" y="56.8473" width="14.6955" height="3.75243" rx="1.87622" fill="url(#paint0_linear_736_410)"/>
<rect x="18.5622" y="56.8473" width="14.6955" height="3.75243" rx="1.87622" fill="url(#paint1_radial_736_410)"/>
<rect x="18.5622" y="56.8473" width="14.6955" height="3.75243" rx="1.87622" stroke="url(#paint2_linear_736_410)" stroke-width="0.8"/>
<path d="M6.00001 25.2867C6.00001 20.1716 8.10714 15.2659 11.8579 11.649C15.6086 8.03199 20.6957 6 26 6C31.3043 6 36.3914 8.03199 40.1421 11.649C43.8929 15.2659 46 20.1716 46 25.2867C46.0024 28.3922 45.2237 31.4519 43.7309 34.2035C42.238 36.9551 40.0754 39.3165 37.4286 41.0853L35.88 48.1553C35.675 49.4584 34.9924 50.6476 33.956 51.5069C32.9197 52.3663 31.5982 52.839 30.2314 52.8392H21.7686C20.4018 52.839 19.0803 52.3663 18.044 51.5069C17.0076 50.6476 16.325 49.4584 16.12 48.1553L14.5714 41.1156C11.9237 39.3406 9.76103 36.9736 8.26836 34.2171C6.77569 31.4605 5.9974 28.3965 6.00001 25.2867Z" fill="url(#paint3_linear_736_410)"/>
<path d="M6.00001 25.2867C6.00001 20.1716 8.10714 15.2659 11.8579 11.649C15.6086 8.03199 20.6957 6 26 6C31.3043 6 36.3914 8.03199 40.1421 11.649C43.8929 15.2659 46 20.1716 46 25.2867C46.0024 28.3922 45.2237 31.4519 43.7309 34.2035C42.238 36.9551 40.0754 39.3165 37.4286 41.0853L35.88 48.1553C35.675 49.4584 34.9924 50.6476 33.956 51.5069C32.9197 52.3663 31.5982 52.839 30.2314 52.8392H21.7686C20.4018 52.839 19.0803 52.3663 18.044 51.5069C17.0076 50.6476 16.325 49.4584 16.12 48.1553L14.5714 41.1156C11.9237 39.3406 9.76103 36.9736 8.26836 34.2171C6.77569 31.4605 5.9974 28.3965 6.00001 25.2867Z" fill="url(#paint4_radial_736_410)"/>
<path d="M37.4286 41.0853C40.0754 39.3165 42.238 36.9551 43.7309 34.2035C45.2237 31.4519 46.0024 28.3922 46 25.2867C46 20.1716 43.8929 15.2659 40.1421 11.649C36.3914 8.03199 31.3043 6 26 6C20.6957 6 15.6086 8.03199 11.8579 11.649C8.10714 15.2659 6.00001 20.1716 6.00001 25.2867C5.9974 28.3965 6.77569 31.4605 8.26836 34.2171C9.76103 36.9736 11.9237 39.3406 14.5714 41.1156M37.4286 41.0853L35.88 48.1553C35.675 49.4584 34.9924 50.6476 33.956 51.5069C32.9197 52.3663 31.5982 52.839 30.2314 52.8392H21.7686C20.4018 52.839 19.0803 52.3663 18.044 51.5069C17.0076 50.6476 16.325 49.4584 16.12 48.1553L14.5714 41.1156M37.4286 41.0853L14.5714 41.1156" stroke="url(#paint5_linear_736_410)" stroke-linecap="round" stroke-linejoin="round"/>
<path d="M14.7318 41.3338L37.2682 41.248" stroke="url(#paint6_linear_736_410)" stroke-width="0.8" stroke-linecap="round"/>
</g>
<defs>
<filter id="filter0_ddii_736_410" x="0.5" y="0.5" width="65" height="79.5" filterUnits="userSpaceOnUse" color-interpolation-filters="sRGB">
<feFlood flood-opacity="0" result="BackgroundImageFix"/>
<feColorMatrix in="SourceAlpha" type="matrix" values="0 0 0 0 0 0 0 0 0 0 0 0 0 0 0 0 0 0 127 0" result="hardAlpha"/>
<feOffset dx="2" dy="3"/>
<feGaussianBlur stdDeviation="2.5"/>
<feComposite in2="hardAlpha" operator="out"/>
<feColorMatrix type="matrix" values="0 0 0 0 0 0 0 0 0 0 0 0 0 0 0 0 0 0 0.25 0"/>
<feBlend mode="normal" in2="BackgroundImageFix" result="effect1_dropShadow_736_410"/>
<feColorMatrix in="SourceAlpha" type="matrix" values="0 0 0 0 0 0 0 0 0 0 0 0 0 0 0 0 0 0 127 0" result="hardAlpha"/>
<feOffset dx="7" dy="7"/>
<feGaussianBlur stdDeviation="6"/>
<feComposite in2="hardAlpha" operator="out"/>
<feColorMatrix type="matrix" values="0 0 0 0 0 0 0 0 0 0 0 0 0 0 0 0 0 0 0.25 0"/>
<feBlend mode="normal" in2="effect1_dropShadow_736_410" result="effect2_dropShadow_736_410"/>
<feBlend mode="normal" in="SourceGraphic" in2="effect2_dropShadow_736_410" result="shape"/>
<feColorMatrix in="SourceAlpha" type="matrix" values="0 0 0 0 0 0 0 0 0 0 0 0 0 0 0 0 0 0 127 0" result="hardAlpha"/>
<feOffset dx="-5" dy="-5"/>
<feGaussianBlur stdDeviation="10.5"/>
<feComposite in2="hardAlpha" operator="arithmetic" k2="-1" k3="1"/>
<feColorMatrix type="matrix" values="0 0 0 0 0 0 0 0 0 0 0 0 0 0 0 0 0 0 0.15 0"/>
<feBlend mode="normal" in2="shape" result="effect3_innerShadow_736_410"/>
<feColorMatrix in="SourceAlpha" type="matrix" values="0 0 0 0 0 0 0 0 0 0 0 0 0 0 0 0 0 0 127 0" result="hardAlpha"/>
<feOffset dx="-2" dy="-3"/>
<feGaussianBlur stdDeviation="2"/>
<feComposite in2="hardAlpha" operator="arithmetic" k2="-1" k3="1"/>
<feColorMatrix type="matrix" values="0 0 0 0 0 0 0 0 0 0 0 0 0 0 0 0 0 0 0.25 0"/>
<feBlend mode="normal" in2="effect3_innerShadow_736_410" result="effect4_innerShadow_736_410"/>
</filter>
<linearGradient id="paint0_linear_736_410" x1="20.0991" y1="56.9332" x2="20.892" y2="62.2222" gradientUnits="userSpaceOnUse">
<stop stop-color="#848484"/>
<stop offset="0.290652" stop-color="#727171"/>
<stop offset="0.506665" stop-color="#5D5D5D"/>
<stop offset="0.75" stop-color="#343434"/>
<stop offset="1" stop-color="#3A3939"/>
</linearGradient>
<radialGradient id="paint1_radial_736_410" cx="0" cy="0" r="1" gradientUnits="userSpaceOnUse" gradientTransform="translate(22.0437 57.3319) rotate(17.4488) scale(12.2063 5.46073)">
<stop stop-color="white" stop-opacity="0.5"/>
<stop offset="0.14224" stop-color="white" stop-opacity="0.4"/>
<stop offset="0.288169" stop-color="white" stop-opacity="0.2"/>
<stop offset="0.45" stop-color="white" stop-opacity="0.2"/>
<stop offset="0.6195" stop-color="white" stop-opacity="0.1"/>
<stop offset="0.838833" stop-color="white" stop-opacity="0.05"/>
</radialGradient>
<linearGradient id="paint2_linear_736_410" x1="19.7117" y1="56.836" x2="20.4273" y2="62.044" gradientUnits="userSpaceOnUse">
<stop stop-color="#8D8D8D"/>
<stop offset="1" stop-color="#3D3D3D"/>
</linearGradient>
<linearGradient id="paint3_linear_736_410" x1="11" y1="11" x2="35.5" y2="52" gradientUnits="userSpaceOnUse">
<stop stop-color="#848484"/>
<stop offset="0.290652" stop-color="#727171"/>
<stop offset="0.506665" stop-color="#5D5D5D"/>
<stop offset="0.75" stop-color="#343434"/>
<stop offset="1" stop-color="#3A3939"/>
</linearGradient>
<radialGradient id="paint4_radial_736_410" cx="0" cy="0" r="1" gradientUnits="userSpaceOnUse" gradientTransform="translate(16.0198 15.1022) rotate(51.4025) scale(48.1842 36.7411)">
<stop stop-color="white" stop-opacity="0.5"/>
<stop offset="0.14224" stop-color="white" stop-opacity="0.4"/>
<stop offset="0.288169" stop-color="white" stop-opacity="0.2"/>
<stop offset="0.45" stop-color="white" stop-opacity="0.2"/>
<stop offset="0.6195" stop-color="white" stop-opacity="0.1"/>
<stop offset="0.838833" stop-color="white" stop-opacity="0.05"/>
</radialGradient>
<linearGradient id="paint5_linear_736_410" x1="12" y1="11.5" x2="39.5" y2="47" gradientUnits="userSpaceOnUse">
<stop stop-color="#7C7C7C"/>
<stop offset="1" stop-color="#4D4D4D"/>
</linearGradient>
<linearGradient id="paint6_linear_736_410" x1="16.9854" y1="41.2554" x2="16.9856" y2="41.3553" gradientUnits="userSpaceOnUse">
<stop stop-color="#8D8D8D"/>
<stop offset="1" stop-color="#3D3D3D"/>
</linearGradient>
</defs>
</svg>
