<svg width="19" height="25" viewBox="0 0 19 25" fill="none" xmlns="http://www.w3.org/2000/svg">
<path d="M7.07143 24H11.9286ZM1 9.05C1 6.91501 1.89554 4.86746 3.48959 3.35779C5.08365 1.84812 7.24566 1 9.5 1C11.7543 1 13.9163 1.84812 15.5104 3.35779C17.1045 4.86746 18 6.91501 18 9.05C18.001 10.3462 17.6701 11.6232 17.0356 12.7717C16.4012 13.9202 15.4821 14.9058 14.3571 15.6441L13.699 18.595C13.6119 19.1389 13.3218 19.6352 12.8813 19.9939C12.4409 20.3526 11.8792 20.5499 11.2984 20.55H7.70164C7.12075 20.5499 6.55914 20.3526 6.11869 19.9939C5.67824 19.6352 5.38814 19.1389 5.301 18.595L4.64286 15.6567C3.51756 14.9159 2.59844 13.9279 1.96405 12.7774C1.32967 11.6269 0.998893 10.348 1 9.05ZM4.64286 15.95H14.3571Z" fill="#FF6666"/>
<path d="M7.07143 24H11.9286M4.64286 15.95H14.3571M1 9.05C1 6.91501 1.89554 4.86746 3.48959 3.35779C5.08365 1.84812 7.24566 1 9.5 1C11.7543 1 13.9163 1.84812 15.5104 3.35779C17.1045 4.86746 18 6.91501 18 9.05C18.001 10.3462 17.6701 11.6232 17.0356 12.7717C16.4012 13.9202 15.4821 14.9058 14.3571 15.6441L13.699 18.595C13.6119 19.1389 13.3218 19.6352 12.8813 19.9939C12.4409 20.3526 11.8792 20.5499 11.2984 20.55H7.70164C7.12075 20.5499 6.55914 20.3526 6.11869 19.9939C5.67824 19.6352 5.38814 19.1389 5.301 18.595L4.64286 15.6567C3.51756 14.9159 2.59844 13.9279 1.96405 12.7774C1.32967 11.6269 0.998893 10.348 1 9.05Z" stroke="#CECECE" stroke-width="1.2" stroke-linecap="round" stroke-linejoin="round"/>
</svg>
