<svg width="66" height="75" viewBox="0 0 66 75" fill="none" xmlns="http://www.w3.org/2000/svg">
<g filter="url(#filter0_ddii_803_85)">
<rect x="18.5622" y="51.1988" width="14.6955" height="3.75243" rx="1.87622" fill="#8C3F3F" stroke="url(#paint0_linear_803_85)" stroke-width="0.8"/>
<path d="M6.00001 19.6378C6.00001 14.5226 8.10714 9.61696 11.8579 6L46 19.6378C46.0024 22.7432 45.2237 25.8029 43.7309 28.5545C42.238 31.3061 40.0754 33.6676 37.4286 35.4364L35.88 42.5063C35.675 43.8095 34.9924 44.9986 33.956 45.858C32.9197 46.7173 31.5982 47.19 30.2314 47.1903H21.7686C20.4018 47.19 19.0803 46.7173 18.044 45.858C17.0076 44.9986 16.325 43.8095 16.12 42.5063L14.5714 35.4667C11.9237 33.6916 9.76103 31.3246 8.26836 28.5681C6.77569 25.8116 5.9974 22.7475 6.00001 19.6378Z" fill="#B72F2F"/>
<path d="M6.00001 19.6378C6.00001 14.5226 8.10714 9.61696 11.8579 6L46 19.6378C46.0024 22.7432 45.2237 25.8029 43.7309 28.5545C42.238 31.3061 40.0754 33.6676 37.4286 35.4364L35.88 42.5063C35.675 43.8095 34.9924 44.9986 33.956 45.858C32.9197 46.7173 31.5982 47.19 30.2314 47.1903H21.7686C20.4018 47.19 19.0803 46.7173 18.044 45.858C17.0076 44.9986 16.325 43.8095 16.12 42.5063L14.5714 35.4667C11.9237 33.6916 9.76103 31.3246 8.26836 28.5681C6.77569 25.8116 5.9974 22.7475 6.00001 19.6378Z" fill="url(#paint1_radial_803_85)"/>
<path d="M37.4286 35.4364C40.0754 33.6676 42.238 31.3061 43.7309 28.5545C45.2237 25.8029 46.0024 22.7432 46 19.6378L11.8579 6C8.10714 9.61696 6.00001 14.5226 6.00001 19.6378C5.9974 22.7475 6.77569 25.8116 8.26836 28.5681C9.76103 31.3246 11.9237 33.6916 14.5714 35.4667M37.4286 35.4364L35.88 42.5063C35.675 43.8095 34.9924 44.9986 33.956 45.858C32.9197 46.7173 31.5982 47.19 30.2314 47.1903H21.7686C20.4018 47.19 19.0803 46.7173 18.044 45.858C17.0076 44.9986 16.325 43.8095 16.12 42.5063L14.5714 35.4667M37.4286 35.4364L14.5714 35.4667" stroke="url(#paint2_linear_803_85)" stroke-width="0.8" stroke-linecap="round" stroke-linejoin="round"/>
<path d="M14.7318 35.6854L37.2682 35.5996" stroke="url(#paint3_linear_803_85)" stroke-width="0.8" stroke-linecap="round"/>
</g>
<defs>
<filter id="filter0_ddii_803_85" x="0.599976" y="0.599609" width="64.8" height="73.752" filterUnits="userSpaceOnUse" color-interpolation-filters="sRGB">
<feFlood flood-opacity="0" result="BackgroundImageFix"/>
<feColorMatrix in="SourceAlpha" type="matrix" values="0 0 0 0 0 0 0 0 0 0 0 0 0 0 0 0 0 0 127 0" result="hardAlpha"/>
<feOffset dx="2" dy="3"/>
<feGaussianBlur stdDeviation="2.5"/>
<feComposite in2="hardAlpha" operator="out"/>
<feColorMatrix type="matrix" values="0 0 0 0 0 0 0 0 0 0 0 0 0 0 0 0 0 0 0.25 0"/>
<feBlend mode="normal" in2="BackgroundImageFix" result="effect1_dropShadow_803_85"/>
<feColorMatrix in="SourceAlpha" type="matrix" values="0 0 0 0 0 0 0 0 0 0 0 0 0 0 0 0 0 0 127 0" result="hardAlpha"/>
<feOffset dx="7" dy="7"/>
<feGaussianBlur stdDeviation="6"/>
<feComposite in2="hardAlpha" operator="out"/>
<feColorMatrix type="matrix" values="0 0 0 0 0 0 0 0 0 0 0 0 0 0 0 0 0 0 0.25 0"/>
<feBlend mode="normal" in2="effect1_dropShadow_803_85" result="effect2_dropShadow_803_85"/>
<feBlend mode="normal" in="SourceGraphic" in2="effect2_dropShadow_803_85" result="shape"/>
<feColorMatrix in="SourceAlpha" type="matrix" values="0 0 0 0 0 0 0 0 0 0 0 0 0 0 0 0 0 0 127 0" result="hardAlpha"/>
<feOffset dx="-5" dy="-5"/>
<feGaussianBlur stdDeviation="10.5"/>
<feComposite in2="hardAlpha" operator="arithmetic" k2="-1" k3="1"/>
<feColorMatrix type="matrix" values="0 0 0 0 0 0 0 0 0 0 0 0 0 0 0 0 0 0 0.15 0"/>
<feBlend mode="normal" in2="shape" result="effect3_innerShadow_803_85"/>
<feColorMatrix in="SourceAlpha" type="matrix" values="0 0 0 0 0 0 0 0 0 0 0 0 0 0 0 0 0 0 127 0" result="hardAlpha"/>
<feOffset dx="-2" dy="-3"/>
<feGaussianBlur stdDeviation="2"/>
<feComposite in2="hardAlpha" operator="arithmetic" k2="-1" k3="1"/>
<feColorMatrix type="matrix" values="0 0 0 0 0 0 0 0 0 0 0 0 0 0 0 0 0 0 0.25 0"/>
<feBlend mode="normal" in2="effect3_innerShadow_803_85" result="effect4_innerShadow_803_85"/>
</filter>
<linearGradient id="paint0_linear_803_85" x1="19.456" y1="50.7988" x2="20.3827" y2="57.6932" gradientUnits="userSpaceOnUse">
<stop stop-color="#A44E4E"/>
<stop offset="1" stop-color="#4B2323"/>
</linearGradient>
<radialGradient id="paint1_radial_803_85" cx="0" cy="0" r="1" gradientUnits="userSpaceOnUse" gradientTransform="translate(16.0198 14.0045) rotate(47.7703) scale(44.7245 34.8094)">
<stop stop-color="white" stop-opacity="0.8"/>
<stop offset="0.14224" stop-color="white" stop-opacity="0.6"/>
<stop offset="0.288169" stop-color="white" stop-opacity="0.3"/>
<stop offset="0.6195" stop-color="white" stop-opacity="0.2"/>
<stop offset="0.838833" stop-color="white" stop-opacity="0.15"/>
<stop offset="1" stop-color="white" stop-opacity="0.35"/>
</radialGradient>
<linearGradient id="paint2_linear_803_85" x1="9.33994" y1="6" x2="33.8247" y2="57.9716" gradientUnits="userSpaceOnUse">
<stop stop-color="#A44E4E"/>
<stop offset="1" stop-color="#4B2323"/>
</linearGradient>
<linearGradient id="paint3_linear_803_85" x1="26.2008" y1="34.5705" x2="26.2008" y2="36.6287" gradientUnits="userSpaceOnUse">
<stop stop-color="#D70D0D"/>
<stop offset="1" stop-color="#4A0B0B"/>
</linearGradient>
</defs>
</svg>
