<svg width="66" height="80" viewBox="0 0 66 80" fill="none" xmlns="http://www.w3.org/2000/svg">
<g filter="url(#filter0_ddii_722_68)">
<rect x="19.1509" y="56.7984" width="14.6955" height="3.80155" rx="1.90078" fill="#973434" stroke="url(#paint0_linear_722_68)" stroke-width="0.8"/>
<path d="M6.00001 25.4948C6.00001 20.3245 8.10714 15.3659 11.8579 11.7099C15.6086 8.05391 20.6957 6 26 6C20.5902 10.5306 28.7513 12.306 22.6997 20.1795C22.6997 20.1795 28.7116 18.8291 31.3836 18.1539C32.7969 17.7967 32.7196 25.6739 36.0595 20.1795C36.7275 22.8804 38.019 24.1858 38.7315 24.906C39.3994 24.2308 39.7344 21.7735 40.7354 20.8547C42.66 22.2843 42.66 19.5834 43.7309 16.1282C46 20.8547 46 20.3245 46 25.4948C46.0024 28.6338 45.2237 31.7265 43.7309 34.5078C42.238 37.2891 40.0754 39.676 37.4286 41.4639L35.88 48.6101C35.675 49.9274 34.9924 51.1293 33.956 51.9979C32.9197 52.8666 31.5982 53.3444 30.2314 53.3446H21.7686C20.4018 53.3444 19.0803 52.8666 18.044 51.9979C17.0076 51.1293 16.325 49.9274 16.12 48.6101L14.5714 41.4945C11.9237 39.7003 9.76103 37.3078 8.26836 34.5215C6.77569 31.7353 5.9974 28.6381 6.00001 25.4948Z" fill="#B72F2F" fill-opacity="0.95"/>
<path d="M6.00001 25.4948C6.00001 20.3245 8.10714 15.3659 11.8579 11.7099C15.6086 8.05391 20.6957 6 26 6C20.5902 10.5306 28.7513 12.306 22.6997 20.1795C22.6997 20.1795 28.7116 18.8291 31.3836 18.1539C32.7969 17.7967 32.7196 25.6739 36.0595 20.1795C36.7275 22.8804 38.019 24.1858 38.7315 24.906C39.3994 24.2308 39.7344 21.7735 40.7354 20.8547C42.66 22.2843 42.66 19.5834 43.7309 16.1282C46 20.8547 46 20.3245 46 25.4948C46.0024 28.6338 45.2237 31.7265 43.7309 34.5078C42.238 37.2891 40.0754 39.676 37.4286 41.4639L35.88 48.6101C35.675 49.9274 34.9924 51.1293 33.956 51.9979C32.9197 52.8666 31.5982 53.3444 30.2314 53.3446H21.7686C20.4018 53.3444 19.0803 52.8666 18.044 51.9979C17.0076 51.1293 16.325 49.9274 16.12 48.6101L14.5714 41.4945C11.9237 39.7003 9.76103 37.3078 8.26836 34.5215C6.77569 31.7353 5.9974 28.6381 6.00001 25.4948Z" fill="url(#paint1_radial_722_68)"/>
<path d="M37.4286 41.4639C40.0754 39.676 42.238 37.2891 43.7309 34.5078C45.2237 31.7265 46.0024 28.6338 46 25.4948C46 20.3245 46 20.8547 43.7309 16.1282C42.66 19.5834 42.66 22.2843 40.7354 20.8547C39.7344 21.7735 39.3994 24.2308 38.7315 24.906C38.019 24.1858 36.7275 22.8804 36.0595 20.1795C32.7196 25.6739 32.7969 17.7967 31.3836 18.1539C28.7116 18.8291 22.6997 20.1795 22.6997 20.1795C28.7513 12.306 20.5902 10.5306 26 6C20.6957 6 15.6086 8.05391 11.8579 11.7099C8.10714 15.3659 6.00001 20.3245 6.00001 25.4948C5.9974 28.6381 6.77569 31.7353 8.26836 34.5215C9.76103 37.3078 11.9237 39.7003 14.5714 41.4945M37.4286 41.4639L35.88 48.6101C35.675 49.9274 34.9924 51.1293 33.956 51.9979C32.9197 52.8666 31.5982 53.3444 30.2314 53.3446H21.7686C20.4018 53.3444 19.0803 52.8666 18.044 51.9979C17.0076 51.1293 16.325 49.9274 16.12 48.6101L14.5714 41.4945M37.4286 41.4639L14.5714 41.4945" stroke="url(#paint2_linear_722_68)" stroke-width="0.8" stroke-linecap="round" stroke-linejoin="round"/>
<path d="M15.3204 41.1218L37.8568 41.0352" stroke="url(#paint3_linear_722_68)" stroke-width="0.8" stroke-linecap="round"/>
</g>
<defs>
<filter id="filter0_ddii_722_68" x="0.599976" y="0.599609" width="64.8" height="79.4004" filterUnits="userSpaceOnUse" color-interpolation-filters="sRGB">
<feFlood flood-opacity="0" result="BackgroundImageFix"/>
<feColorMatrix in="SourceAlpha" type="matrix" values="0 0 0 0 0 0 0 0 0 0 0 0 0 0 0 0 0 0 127 0" result="hardAlpha"/>
<feOffset dx="2" dy="3"/>
<feGaussianBlur stdDeviation="2.5"/>
<feComposite in2="hardAlpha" operator="out"/>
<feColorMatrix type="matrix" values="0 0 0 0 0 0 0 0 0 0 0 0 0 0 0 0 0 0 0.25 0"/>
<feBlend mode="normal" in2="BackgroundImageFix" result="effect1_dropShadow_722_68"/>
<feColorMatrix in="SourceAlpha" type="matrix" values="0 0 0 0 0 0 0 0 0 0 0 0 0 0 0 0 0 0 127 0" result="hardAlpha"/>
<feOffset dx="7" dy="7"/>
<feGaussianBlur stdDeviation="6"/>
<feComposite in2="hardAlpha" operator="out"/>
<feColorMatrix type="matrix" values="0 0 0 0 0 0 0 0 0 0 0 0 0 0 0 0 0 0 0.25 0"/>
<feBlend mode="normal" in2="effect1_dropShadow_722_68" result="effect2_dropShadow_722_68"/>
<feBlend mode="normal" in="SourceGraphic" in2="effect2_dropShadow_722_68" result="shape"/>
<feColorMatrix in="SourceAlpha" type="matrix" values="0 0 0 0 0 0 0 0 0 0 0 0 0 0 0 0 0 0 127 0" result="hardAlpha"/>
<feOffset dx="-5" dy="-5"/>
<feGaussianBlur stdDeviation="10.5"/>
<feComposite in2="hardAlpha" operator="arithmetic" k2="-1" k3="1"/>
<feColorMatrix type="matrix" values="0 0 0 0 0 0 0 0 0 0 0 0 0 0 0 0 0 0 0.15 0"/>
<feBlend mode="normal" in2="shape" result="effect3_innerShadow_722_68"/>
<feColorMatrix in="SourceAlpha" type="matrix" values="0 0 0 0 0 0 0 0 0 0 0 0 0 0 0 0 0 0 127 0" result="hardAlpha"/>
<feOffset dx="-2" dy="-3"/>
<feGaussianBlur stdDeviation="2"/>
<feComposite in2="hardAlpha" operator="arithmetic" k2="-1" k3="1"/>
<feColorMatrix type="matrix" values="0 0 0 0 0 0 0 0 0 0 0 0 0 0 0 0 0 0 0.25 0"/>
<feBlend mode="normal" in2="effect3_innerShadow_722_68" result="effect4_innerShadow_722_68"/>
</filter>
<linearGradient id="paint0_linear_722_68" x1="20.0447" y1="56.3984" x2="20.9911" y2="63.3645" gradientUnits="userSpaceOnUse">
<stop stop-color="#A44E4E"/>
<stop offset="1" stop-color="#4B2323"/>
</linearGradient>
<radialGradient id="paint1_radial_722_68" cx="0" cy="0" r="1" gradientUnits="userSpaceOnUse" gradientTransform="translate(16.0198 15.2004) rotate(51.7019) scale(48.5024 36.8939)">
<stop stop-color="white" stop-opacity="0.8"/>
<stop offset="0.14224" stop-color="white" stop-opacity="0.6"/>
<stop offset="0.288169" stop-color="white" stop-opacity="0.3"/>
<stop offset="0.6195" stop-color="white" stop-opacity="0.2"/>
<stop offset="0.838833" stop-color="white" stop-opacity="0.15"/>
<stop offset="1" stop-color="white" stop-opacity="0.35"/>
</radialGradient>
<linearGradient id="paint2_linear_722_68" x1="9.33994" y1="6" x2="39.905" y2="62.4443" gradientUnits="userSpaceOnUse">
<stop stop-color="#A44E4E"/>
<stop offset="1" stop-color="#4B2323"/>
</linearGradient>
<linearGradient id="paint3_linear_722_68" x1="26.7894" y1="39.9949" x2="26.7894" y2="42.0754" gradientUnits="userSpaceOnUse">
<stop stop-color="#D70D0D"/>
<stop offset="1" stop-color="#4A0B0B"/>
</linearGradient>
</defs>
</svg>
