<svg width="19" height="25" viewBox="0 0 19 25" fill="none" xmlns="http://www.w3.org/2000/svg">
<path d="M7.07143 24H11.9286ZM1 9.05C1 6.91501 1.89554 4.86746 3.48959 3.35779C5.08365 1.84812 7.24566 1 9.5 1C11.7543 1 13.9163 1.84812 15.5104 3.35779C17.1045 4.86746 18 6.91501 18 9.05C18.001 10.3462 17.6701 11.6232 17.0356 12.7717C16.4012 13.9202 15.4821 14.9058 14.3571 15.6441L13.699 18.595C13.6119 19.1389 13.3218 19.6352 12.8813 19.9939C12.4409 20.3526 11.8792 20.5499 11.2984 20.55H7.70164C7.12075 20.5499 6.55914 20.3526 6.11869 19.9939C5.67824 19.6352 5.38814 19.1389 5.301 18.595L4.64286 15.6567C3.51756 14.9159 2.59844 13.9279 1.96405 12.7774C1.32967 11.6269 0.998893 10.348 1 9.05ZM4.64286 15.95H14.3571Z" fill="#FF6666"/>
<path d="M7.07143 24H11.9286M4.64286 15.95H14.3571M1 9.05C1 6.91501 1.89554 4.86746 3.48959 3.35779C5.08365 1.84812 7.24566 1 9.5 1C11.7543 1 13.9163 1.84812 15.5104 3.35779C17.1045 4.86746 18 6.91501 18 9.05C18.001 10.3462 17.6701 11.6232 17.0356 12.7717C16.4012 13.9202 15.4821 14.9058 14.3571 15.6441L13.699 18.595C13.6119 19.1389 13.3218 19.6352 12.8813 19.9939C12.4409 20.3526 11.8792 20.5499 11.2984 20.55H7.70164C7.12075 20.5499 6.55914 20.3526 6.11869 19.9939C5.67824 19.6352 5.38814 19.1389 5.301 18.595L4.64286 15.6567C3.51756 14.9159 2.59844 13.9279 1.96405 12.7774C1.32967 11.6269 0.998893 10.348 1 9.05Z" stroke="#CECECE" stroke-width="1.2" stroke-linecap="round" stroke-linejoin="round"/>
<path d="M9.11475 13.2065C8.67848 12.7723 8.09781 12.1684 7.51904 11.4888C6.93871 10.8072 6.36875 10.0595 5.94678 9.3374C5.51701 8.60189 5.27795 7.95427 5.27783 7.45654C5.27783 6.61998 5.6895 5.78861 6.47412 5.15674C7.26161 4.52262 8.34902 4.1539 9.49951 4.15381C10.6502 4.15381 11.7383 4.52254 12.5259 5.15674C13.3105 5.7886 13.7222 6.62001 13.7222 7.45654C13.7221 7.95436 13.4822 8.60173 13.0522 9.3374C12.6302 10.0596 12.0604 10.8071 11.48 11.4888C10.9012 12.1684 10.3215 12.7723 9.88525 13.2065C9.73909 13.352 9.60818 13.4772 9.50049 13.5806C9.39268 13.4771 9.26117 13.3523 9.11475 13.2065Z" fill="#F7F501" stroke="#CECECE"/>
</svg>
