<svg width="30" height="30" viewBox="0 0 32 32" fill="none" xmlns="http://www.w3.org/2000/svg">
<path d="M27.8421 17.5V12.052C27.8421 6.8425 27.8421 4.237 26.2237 2.6185C24.6053 1 22 1 16.7895 1H12.0526C6.84211 1 4.23684 1 2.61842 2.62C1 4.2355 1 6.841 1 12.0505V19.9465C1 25.156 1 27.7615 2.61842 29.38C4.23684 30.9985 6.84211 31 12.0526 31H14.4211M18.3684 28C18.3684 28 19.9474 28 21.5263 31C21.5263 31 26.5426 23.5 31 22" stroke="black" stroke-width="1.5" stroke-linecap="round" stroke-linejoin="round"/>
<path d="M8.10522 1L8.2347 1.7395C8.55049 3.535 8.70838 4.4335 9.37154 4.9675C10.0315 5.5 10.99 5.5 12.9068 5.5H15.9336C17.8489 5.5 18.8073 5.5 19.4705 4.9675C20.1336 4.4335 20.2915 3.535 20.6058 1.7395L20.7368 1M8.10522 22H14.421M8.10522 14.5H20.7368" stroke="black" stroke-width="1.5" stroke-linecap="round" stroke-linejoin="round"/>
</svg>
