<svg width="22" height="22" viewBox="0 0 22 22" fill="none" xmlns="http://www.w3.org/2000/svg">
<path d="M8.68707 0.296858C9.70382 -0.0989525 10.8295 -0.0989525 11.8463 0.296858L19.1239 3.12906C19.5388 3.29074 19.8955 3.57586 20.1471 3.94683C20.3987 4.31781 20.5334 4.75723 20.5333 5.20719V9.02205C20.0809 8.64396 19.5891 8.31695 19.0667 8.04681V5.63173L15.5467 7.15618H15.4C14.3014 7.15617 13.2143 7.38328 12.2055 7.82358C11.1967 8.26389 10.2874 8.90811 9.53333 9.71674V9.13041L1.46667 5.63173V15.0427C1.46651 15.1927 1.51128 15.3393 1.59506 15.463C1.67884 15.5868 1.79771 15.6819 1.936 15.7359L7.78213 18.0115C8.0256 18.721 8.3644 19.3845 8.7824 19.9901L8.68707 19.9545L1.41093 17.1208C0.995761 16.9594 0.638689 16.6744 0.386805 16.3034C0.134922 15.9324 5.88757e-05 15.4928 0 15.0427V5.20719C5.88757e-05 4.75705 0.134922 4.31751 0.386805 3.94651C0.638689 3.57552 0.995761 3.29051 1.41093 3.12906L8.68707 0.296858ZM11.3197 1.68179C10.6419 1.41791 9.89144 1.41791 9.2136 1.68179L7.18373 2.47296L15.3824 5.61391L18.2395 4.37594L11.3197 1.68179ZM2.29387 4.37594L10.2667 7.83455L13.4405 6.45704L5.12893 3.27156L2.29387 4.37594ZM22 15.3203C22 17.0919 21.3046 18.7909 20.0669 20.0436C18.8292 21.2962 17.1504 22 15.4 22C13.6496 22 11.9708 21.2962 10.7331 20.0436C9.49536 18.7909 8.8 17.0919 8.8 15.3203C8.8 13.5487 9.49536 11.8497 10.7331 10.597C11.9708 9.34432 13.6496 8.64057 15.4 8.64057C17.1504 8.64057 18.8292 9.34432 20.0669 10.597C21.3046 11.8497 22 13.5487 22 15.3203ZM14.4525 18.0723L18.8525 13.6192C18.9902 13.4798 19.0676 13.2908 19.0676 13.0937C19.0676 12.8966 18.9902 12.7076 18.8525 12.5682C18.7148 12.4289 18.5281 12.3506 18.3333 12.3506C18.1386 12.3506 17.9518 12.4289 17.8141 12.5682L13.9333 16.4974L12.9859 15.537C12.8482 15.3976 12.6614 15.3193 12.4667 15.3193C12.2719 15.3193 12.0852 15.3976 11.9475 15.537C11.8098 15.6764 11.7324 15.8654 11.7324 16.0625C11.7324 16.2596 11.8098 16.4486 11.9475 16.5879L13.4141 18.0723C13.4823 18.1414 13.5632 18.1963 13.6523 18.2337C13.7414 18.2711 13.8369 18.2904 13.9333 18.2904C14.0298 18.2904 14.1253 18.2711 14.2144 18.2337C14.3035 18.1963 14.3844 18.1414 14.4525 18.0723Z" fill="black"/>
</svg>
