<svg width="30" height="30" viewBox="0 0 32 32" fill="none" xmlns="http://www.w3.org/2000/svg">
<path d="M8.12848 22.0045H14.4438M8.12848 14.5074H20.7591M12.8649 31H14.4438M8.91157 31C7.06435 30.9625 5.80129 30.85 4.57613 30.5125C2.91836 30.1 1.71056 28.7125 1.35533 26.764C0.905363 24.928 1.06325 20.3935 1.02377 14.9949C1.02693 10.8084 0.826422 6.7869 1.53689 4.50089C1.97107 3.75089 2.3263 1.01488 8.20742 1.05088C9.19418 1.01488 19.6539 0.939876 21.3117 1.08988C26.8375 1.20238 27.3901 3.90089 27.7059 6.4494C27.9064 8.32441 27.8638 11.3214 27.8638 14.5074M8.12848 1.01488C8.60213 3.45089 8.56265 5.02589 10.2994 5.39939C11.0493 5.5119 12.7623 5.50889 14.6017 5.51189C16.2436 5.51489 17.9172 5.52989 18.6671 5.36189C20.5222 4.95089 20.3249 2.77588 20.7985 1.01488M25.9139 19.5685C23.743 21.6685 19.5623 25.4155 19.5623 25.678C19.226 26.1235 18.9308 27.028 18.735 28.303C18.4871 29.4835 18.1903 30.5125 18.5377 30.8125C18.885 31.1125 20.1907 30.8605 21.5737 30.5875C22.6789 30.475 23.7051 30.1 24.2167 29.7265C24.9666 29.0965 30.0552 24.2155 30.6456 23.5795C31.0798 23.017 31.1193 21.967 30.7404 21.3295C30.5288 20.8795 29.1868 19.6795 28.7526 19.3435C28.3161 19.0876 27.8047 18.9715 27.2935 19.012C26.7824 19.0525 26.2999 19.2475 25.9139 19.5685Z" stroke="black" stroke-width="1.5" stroke-linecap="round" stroke-linejoin="round"/>
</svg>
