<svg width="24" height="26" viewBox="0 0 24 26" fill="none" xmlns="http://www.w3.org/2000/svg">
<path d="M4.01786 0C3.23642 0 2.48698 0.310426 1.93442 0.862989C1.38185 1.41555 1.07143 2.16499 1.07143 2.94643V7.96393C1.64862 7.65706 2.29274 7.49769 2.94643 7.5H7.14857C8.21388 7.50009 9.23554 7.92324 9.98893 8.67643L16.2343 14.9218C16.2844 14.9717 16.3521 14.9998 16.4229 15H18.75V2.94643C18.75 2.16499 18.4396 1.41555 17.887 0.862989C17.3344 0.310426 16.585 0 15.8036 0H4.01786ZM21.4286 15.0804C21.1638 15.0283 20.8948 15.0014 20.625 15H19.8214V3C20.3052 3.24689 20.7114 3.62272 20.995 4.08596C21.2786 4.54921 21.4287 5.08183 21.4286 5.625V15.0804ZM0 11.5179C0 10.7364 0.310426 9.98698 0.862989 9.43442C1.41555 8.88185 2.16499 8.57143 2.94643 8.57143H7.14857C7.92964 8.57143 8.67857 8.88214 9.23143 9.435L15.4768 15.6793C15.7275 15.93 16.0682 16.0714 16.4229 16.0714H20.625C21.4064 16.0714 22.1559 16.3819 22.7084 16.9344C23.261 17.487 23.5714 18.2364 23.5714 19.0179V21.6964C23.5714 22.762 23.1481 23.784 22.3946 24.5375C21.6411 25.291 20.6192 25.7143 19.5536 25.7143H4.01786C2.95226 25.7143 1.9303 25.291 1.1768 24.5375C0.423309 23.784 0 22.762 0 21.6964V11.5179Z" fill="black"/>
</svg>
