<svg width="30" height="30" viewBox="0 0 30 30" fill="none" xmlns="http://www.w3.org/2000/svg">
<path d="M7.59525 19.7414C6.79443 18.5895 6.39165 16.4459 6.39165 13.3124V9.0318C6.39165 6.11602 6.04253 4.06453 5.33936 2.87281C4.63865 1.67805 3.46921 1.08195 1.83714 1.08195C1.4795 1.08195 1.15234 1.09953 0.849672 1.1282C0.546882 1.16156 0.264918 1.20922 0 1.27125V2.42633H0.636008C1.37579 2.42633 1.89092 2.72508 2.17654 3.32727C2.46343 3.93273 2.60507 5.31836 2.60507 7.47937V12.7929C2.60507 16.0837 3.38626 18.5895 4.95975 20.3056C6.13778 21.5927 7.7588 22.4333 9.82299 22.837V21.2606C8.83918 20.9269 8.07989 20.4391 7.59525 19.7416V19.7414ZM22.4048 19.7414C23.2056 18.5895 23.6083 16.4459 23.6083 13.3124V9.0318C23.6083 6.11602 23.9575 4.06453 24.6606 2.87281C25.3613 1.67805 26.5308 1.08195 28.1629 1.08195C28.5205 1.08195 28.8477 1.09953 29.1503 1.1282C29.4531 1.16156 29.7351 1.20922 30 1.27125V2.42633H29.364C28.6242 2.42633 28.1091 2.72508 27.8235 3.32727C27.5366 3.93273 27.3949 5.31836 27.3949 7.47937V12.7929C27.3949 16.0837 26.6137 18.5895 25.0402 20.3056C23.8622 21.5927 22.2412 22.4333 20.177 22.837V21.2606C21.1608 20.9269 21.9201 20.4391 22.4048 19.7416V19.7414ZM17.8784 1.80992C18.3837 1.28711 19.4103 0.986797 20.9533 0.912032V0H9.04666V0.911953C10.6177 0.986718 11.6504 1.28703 12.1486 1.80984C12.6478 2.3357 12.8932 3.37492 12.8932 4.92742V25.0535C12.8932 26.6791 12.6478 27.75 12.1486 28.2584C11.6504 28.7717 10.6177 29.0481 9.04666 29.0911V30H20.9131L20.9534 29.0911C19.4226 29.0481 18.3986 28.751 17.8882 28.1997C17.3829 27.6562 17.124 26.6027 17.124 25.0536V4.92734C17.124 3.37484 17.3743 2.33563 17.8785 1.80977L17.8784 1.80992Z" fill="black"/>
</svg>
