<svg width="30" height="30" viewBox="0 0 30 30" fill="none" xmlns="http://www.w3.org/2000/svg">
<path d="M15.442 0L15.4361 2.04041C14.9583 2.07096 14.4768 2.12601 13.9944 2.20557L14.8051 5.84121C15.6751 5.74282 16.5227 5.75262 17.3367 5.8631L18.025 2.13397C17.5588 2.06818 17.0893 2.029 16.6187 2.01661L16.6247 0.00190935L15.442 0ZM10.8873 0.918759L9.77385 1.32251L10.4523 3.21992C10.2751 3.29247 10.0981 3.36783 9.9222 3.44662C9.73967 3.52863 9.55905 3.61484 9.38046 3.7052L11.2078 6.83965C12.0269 6.47905 12.839 6.21181 13.6364 6.03615L12.8354 2.4422C12.4101 2.54619 11.9848 2.67004 11.5618 2.81018L10.8873 0.918695L10.8873 0.918759ZM21.5334 1.03217L20.6967 2.85187C20.208 2.65012 19.7042 2.48694 19.1879 2.35863L18.4956 6.09578C18.8521 6.19029 19.2004 6.30339 19.5399 6.43787C20.0602 6.64378 20.5618 6.89462 21.039 7.18759L23.1314 4.1348C22.6894 3.85337 22.2347 3.59258 21.7688 3.35325L22.6074 1.52936L21.5334 1.03217ZM6.00632 3.48041L5.08676 4.22632L6.35629 5.81136C5.99376 6.14824 5.64981 6.50479 5.32598 6.87943L8.09086 8.99959C8.70149 8.3686 9.39397 7.82335 10.1496 7.37858L8.34794 4.28595C7.9729 4.51996 7.60987 4.77289 7.26022 5.04376L6.00632 3.48041ZM26.454 4.15656L25.0715 5.58663C24.7614 5.31424 24.4402 5.05413 24.1083 4.807L22.0081 7.86985C22.7083 8.428 23.3549 9.09753 23.9344 9.88659L26.8752 7.47405C26.5783 7.10215 26.2634 6.74506 25.9318 6.40407L27.3024 4.98609L26.454 4.15656ZM4.58831 7.81022C4.31308 8.19022 4.05698 8.58386 3.82095 8.98966L2.0312 8.09661L1.50705 9.16264L3.26719 10.0397C3.04629 10.5059 2.85087 10.9839 2.68179 11.4716L5.93714 12.4064C6.27426 11.5093 6.73852 10.666 7.31553 9.90243L4.58831 7.81022ZM27.5773 8.43278L24.5909 10.881C24.8941 11.3914 25.1732 11.9421 25.4256 12.5337C26.6537 13.3172 28.4817 12.5063 28.9499 11.058C28.8608 10.8328 28.7659 10.6099 28.6651 10.3898L30 9.67968L29.4462 8.62753L28.1292 9.32964C27.9566 9.02377 27.7725 8.72458 27.5774 8.43271L27.5773 8.43278ZM16.4111 11.0481C16.3218 11.0487 16.2337 11.0532 16.1461 11.06L16.0452 12.7565C16.6004 12.8312 17.1149 13.0371 17.5799 13.3412L18.921 11.7183C18.0843 11.2804 17.217 11.0415 16.4111 11.0481L16.4111 11.0481ZM14.9476 11.3027C13.7692 11.6779 12.6654 12.4649 12.0898 13.8046C13.0124 13.1828 13.9577 12.8491 14.8606 12.7505L14.9476 11.3027ZM22.0733 12.0186L20.7661 13.0688C20.5038 12.8132 20.225 12.5753 19.9315 12.3567L18.4798 14.113C18.978 14.6567 19.3771 15.3194 19.6546 16.0302L22.093 14.7315C21.9288 14.4631 21.7499 14.2042 21.5571 13.9558L22.813 12.9474L22.0732 12.0186L22.0733 12.0186ZM2.33978 12.6113C2.22421 13.0638 2.13112 13.5218 2.06088 13.9836L0.13651 13.7569L0 14.9383L1.93025 15.165C1.89988 15.6157 1.89038 16.0696 1.90456 16.5234L5.28643 16.058C5.28146 15.2101 5.38181 14.365 5.58514 13.5421L2.33978 12.6114V12.6113ZM22.6391 15.7875L19.9969 17.1937C20.1458 17.9285 20.1737 18.6666 20.0838 19.3775L23.1908 19.8349C23.2242 19.5525 23.2455 19.2682 23.2541 18.9837C23.2594 18.8078 23.2573 18.6333 23.2501 18.4605L24.8066 18.216L24.6246 17.0405L23.1057 17.2792C23.0007 16.7674 22.8443 16.2676 22.639 15.7876L22.6391 15.7875ZM5.36364 17.2475L1.9955 17.7108C2.04531 18.1289 2.11606 18.5464 2.20524 18.9618L0.296689 19.6579L0.698182 20.7756L2.50591 20.1173C2.61836 20.48 2.74636 20.8377 2.88956 21.1893C2.9493 21.3351 3.01197 21.4797 3.07752 21.6229L6.06378 19.9402C6.06359 19.9397 6.06403 19.9389 6.06378 19.9383C5.70393 19.0539 5.47382 18.149 5.3637 17.2474L5.36364 17.2475ZM19.8247 20.5389C19.6241 21.1567 19.3278 21.7389 18.9406 22.2613L21.5117 24.2562C21.7218 23.9575 21.9137 23.6458 22.0872 23.3254L23.7446 23.9697L24.1718 22.8599L22.5875 22.2453C22.7454 21.8415 22.8762 21.4276 22.9791 21.0062L19.8247 20.5389ZM6.58786 21.0063L3.62508 22.679C3.87616 23.1061 4.15502 23.516 4.45983 23.9061L3.03385 25.2088L3.83083 26.0899L5.23706 24.803C5.60223 25.181 5.99347 25.5326 6.40787 25.8552L8.26092 23.0269C7.61184 22.4687 7.04492 21.7916 6.58786 21.0062V21.0063ZM18.1377 23.1405C17.6654 23.5623 17.1128 23.9185 16.4844 24.1886C16.368 24.2389 16.2506 24.2867 16.1322 24.3318L17.3366 27.4783C17.4902 27.4199 17.6425 27.3582 17.7935 27.2932C18.1132 27.1558 18.4194 27 18.7131 26.8299L19.8424 28.5324L20.8255 27.8741L19.6962 26.1695C20.0791 25.8708 20.437 25.5409 20.766 25.1831L18.1377 23.1405ZM9.21819 23.7292L7.38097 26.5354C7.77769 26.7809 8.18917 27.0015 8.61304 27.1957L7.8536 29.0296L8.9472 29.485L9.71266 27.6333C10.1798 27.7913 10.6567 27.9182 11.1404 28.0133L11.4847 24.666C10.6838 24.4789 9.9184 24.1626 9.21813 23.7293L9.21819 23.7292ZM14.9971 24.6719C14.21 24.8488 13.4213 24.9055 12.6534 24.8469L12.3132 28.1783C12.7835 28.2198 13.2588 28.2324 13.7353 28.2139L13.85 30L15.0307 29.9244L14.914 28.1046C15.3505 28.0418 15.7831 27.9535 16.2094 27.8401L14.9971 24.6719H14.9971Z" fill="black"/>
</svg>
