<svg width="30" height="30" viewBox="0 0 30 30" fill="none" xmlns="http://www.w3.org/2000/svg">
<path d="M3.03 30C2.16625 30 1.44562 29.7466 0.868125 29.2397C0.290625 28.7329 0.00125 28.1004 0 27.3423V6.32748C0 5.57049 0.289375 4.93856 0.868125 4.43171C1.44687 3.92485 2.1675 3.67087 3.03 3.66977H6.34687V0H8.36625V3.66977H21.78V0H23.655V3.66977H26.9719C27.8344 3.66977 28.555 3.92375 29.1337 4.43171C29.7125 4.93966 30.0012 5.57213 30 6.32913V27.3423C30 28.0993 29.7112 28.7318 29.1337 29.2397C28.5562 29.7477 27.835 30.0011 26.97 30H3.03ZM3.03 28.3544H26.9719C27.2594 28.3544 27.5237 28.249 27.765 28.0384C28.0062 27.8278 28.1262 27.5952 28.125 27.3406V12.9117H1.875V27.3423C1.875 27.5946 1.995 27.8267 2.235 28.0384C2.475 28.2501 2.73937 28.3555 3.02812 28.3544M1.875 11.2644H28.125V6.32748C28.125 6.07515 28.005 5.84312 27.765 5.63138C27.525 5.41964 27.26 5.31432 26.97 5.31541H3.03C2.74125 5.31541 2.47625 5.42073 2.235 5.63138C1.99375 5.84202 1.87375 6.0746 1.875 6.32913V11.2644ZM6.5625 17.6577V16.0121H23.4375V17.6577H6.5625ZM6.5625 24.2403V22.5946H17.8125V24.2403H6.5625Z" fill="black"/>
</svg>
