<svg width="30" height="30" viewBox="0 0 30 30" fill="none" xmlns="http://www.w3.org/2000/svg">
<g clip-path="url(#clip0_353_529)">
<path d="M22.5 0H9.375V11.25H10.6875L11.0625 12.5625L11.25 12.75V1.875H20.625V9.375H28.125V26.25H16.875L17.4375 27.1875L16.5 28.125H30V7.5L22.5 0ZM22.5 7.5V1.875L28.125 7.5H22.5ZM10.3125 21.5625C10.3125 22.0598 10.115 22.5367 9.76332 22.8883C9.41169 23.24 8.93478 23.4375 8.4375 23.4375C7.94022 23.4375 7.46331 23.24 7.11167 22.8883C6.76004 22.5367 6.5625 22.0598 6.5625 21.5625C6.5625 21.0652 6.76004 20.5883 7.11167 20.2367C7.46331 19.885 7.94022 19.6875 8.4375 19.6875C8.93478 19.6875 9.41169 19.885 9.76332 20.2367C10.115 20.5883 10.3125 21.0652 10.3125 21.5625Z" fill="black"/>
<path d="M14.8125 23.25L16.875 22.5V20.625L14.8125 19.875C14.625 19.3125 14.4375 18.75 14.0625 18.1875L15 16.3125L13.6875 15L11.8125 15.9375C11.25 15.5625 10.6875 15.375 10.125 15.1875L9.375 13.125H7.5L6.75 15.1875C6.1875 15.375 5.625 15.5625 5.0625 15.9375L3.1875 15L1.875 16.3125L2.8125 18.375C2.4375 18.9375 2.25 19.5 2.0625 20.0625L0 20.625V22.5L2.0625 23.25C2.25 23.8125 2.4375 24.375 2.8125 24.9375L1.875 26.8125L3.1875 28.125L5.25 27.1875C5.8125 27.5625 6.375 27.75 6.9375 27.9375L7.5 30H9.375L10.125 27.9375C10.6875 27.75 11.25 27.5625 11.8125 27.1875L13.6875 28.125L15 26.8125L14.0625 24.75C14.4375 24.375 14.625 23.8125 14.8125 23.25ZM8.4375 25.3125C6.375 25.3125 4.6875 23.625 4.6875 21.5625C4.6875 19.5 6.375 17.8125 8.4375 17.8125C10.5 17.8125 12.1875 19.5 12.1875 21.5625C12.1875 23.625 10.5 25.3125 8.4375 25.3125Z" fill="black"/>
</g>
<defs>
<clipPath id="clip0_353_529">
<rect width="30" height="30" fill="white"/>
</clipPath>
</defs>
</svg>
