<svg width="20" height="23" viewBox="0 0 20 23" fill="none" xmlns="http://www.w3.org/2000/svg">
<path d="M14.3478 14.2759H17.8261C18.4026 14.2759 18.9556 14.067 19.3633 13.6951C19.771 13.3233 20 12.819 20 12.2931V9.12069C20 8.59483 19.771 8.09051 19.3633 7.71867C18.9556 7.34683 18.4026 7.13793 17.8261 7.13793H14.3478C13.7713 7.13793 13.2183 7.34683 12.8106 7.71867C12.4029 8.09051 12.1739 8.59483 12.1739 9.12069V9.51724H5.21739V7.13793H5.65217C6.22873 7.13793 6.78167 6.92903 7.18936 6.55719C7.59705 6.18536 7.82609 5.68103 7.82609 5.15517V1.98276C7.82609 1.4569 7.59705 0.952576 7.18936 0.580737C6.78167 0.208897 6.22873 0 5.65217 0H2.17391C1.59736 0 1.04441 0.208897 0.636724 0.580737C0.229037 0.952576 0 1.4569 0 1.98276V5.15517C0 5.68103 0.229037 6.18536 0.636724 6.55719C1.04441 6.92903 1.59736 7.13793 2.17391 7.13793H2.6087V17.8448C2.6087 18.581 2.92935 19.2871 3.50011 19.8077C4.07087 20.3282 4.84499 20.6207 5.65217 20.6207H12.1739V21.0172C12.1739 21.5431 12.4029 22.0474 12.8106 22.4193C13.2183 22.7911 13.7713 23 14.3478 23H17.8261C18.4026 23 18.9556 22.7911 19.3633 22.4193C19.771 22.0474 20 21.5431 20 21.0172V17.8448C20 17.319 19.771 16.8146 19.3633 16.4428C18.9556 16.071 18.4026 15.8621 17.8261 15.8621H14.3478C13.7713 15.8621 13.2183 16.071 12.8106 16.4428C12.4029 16.8146 12.1739 17.319 12.1739 17.8448V18.2414H5.65217C5.53686 18.2414 5.42627 18.1996 5.34474 18.1252C5.2632 18.0509 5.21739 17.95 5.21739 17.8448V11.8966H12.1739V12.2931C12.1739 12.819 12.4029 13.3233 12.8106 13.6951C13.2183 14.067 13.7713 14.2759 14.3478 14.2759ZM2.6087 2.37931H5.21739V4.75862H2.6087V2.37931ZM14.7826 18.2414H17.3913V20.6207H14.7826V18.2414ZM14.7826 9.51724H17.3913V11.8966H14.7826V9.51724Z" fill="black"/>
</svg>
