<svg width="80" height="80" viewBox="0 0 80 80" fill="none" xmlns="http://www.w3.org/2000/svg">
<rect width="80" height="80" fill="white"/>
<path d="M25 25H52.3798V36.1628H49.6418V27.7907H27.738V41.1665L34.5829 34.1898L42.6791 42.4419L40.7434 44.4149L34.5829 38.1358L27.738 45.1126V50.1163H35.9519V52.907H25V25ZM43.5457 31.9767C43.1826 31.9767 42.8344 32.1238 42.5777 32.3854C42.3209 32.6471 42.1767 33.002 42.1767 33.3721C42.1767 33.7422 42.3209 34.0971 42.5777 34.3588C42.8344 34.6204 43.1826 34.7674 43.5457 34.7674C43.9088 34.7674 44.257 34.6204 44.5137 34.3588C44.7704 34.0971 44.9147 33.7422 44.9147 33.3721C44.9147 33.002 44.7704 32.6471 44.5137 32.3854C44.257 32.1238 43.9088 31.9767 43.5457 31.9767ZM39.4387 33.3721C39.4387 32.2619 39.8714 31.1971 40.6416 30.4121C41.4118 29.6271 42.4564 29.186 43.5457 29.186C44.6349 29.186 45.6795 29.6271 46.4497 30.4121C47.2199 31.1971 47.6526 32.2619 47.6526 33.3721C47.6526 34.4823 47.2199 35.547 46.4497 36.3321C45.6795 37.1171 44.6349 37.5581 43.5457 37.5581C42.4564 37.5581 41.4118 37.1171 40.6416 36.3321C39.8714 35.547 39.4387 34.4823 39.4387 33.3721ZM49.3502 39.0735L55 44.8321L45.0256 55H39.3744L39.373 49.24L49.3502 39.0735ZM48.088 44.306L49.8663 46.12L51.1285 44.8321L49.3488 43.0195L48.088 44.306ZM47.9305 48.0916L46.1509 46.2791L42.1123 50.3953V52.2093H43.892L47.9305 48.0916Z" fill="#212121"/>
</svg>
