<svg width="13" height="12" viewBox="0 0 13 12" fill="none" xmlns="http://www.w3.org/2000/svg">
<path d="M0 3.33333V2.16667C0 1.59203 0.222566 1.04093 0.618737 0.634602C1.01491 0.228273 1.55223 0 2.1125 0H3.98385C4.3715 0.000173304 4.74323 0.158193 5.01735 0.439333L6.0125 1.45933L4.32835 3.18667C4.23701 3.28046 4.1131 3.33322 3.98385 3.33333H0ZM0 4.33333V9.83333C0 10.408 0.222566 10.9591 0.618737 11.3654C1.01491 11.7717 1.55223 12 2.1125 12H10.8875C11.1649 12 11.4396 11.944 11.6959 11.8351C11.9522 11.7262 12.1851 11.5666 12.3813 11.3654C12.5774 11.1642 12.733 10.9254 12.8392 10.6625C12.9454 10.3996 13 10.1179 13 9.83333V3.83333C13 3.5488 12.9454 3.26706 12.8392 3.00419C12.733 2.74131 12.5774 2.50246 12.3813 2.30127C12.1851 2.10008 11.9522 1.94048 11.6959 1.83159C11.4396 1.72271 11.1649 1.66667 10.8875 1.66667H7.189L5.018 3.894C4.88219 4.03329 4.72097 4.14378 4.54353 4.21916C4.36609 4.29454 4.17591 4.33334 3.98385 4.33333H0Z" fill="url(#paint0_linear_1063_810)"/>
<defs>
<linearGradient id="paint0_linear_1063_810" x1="1.5" y1="0.5" x2="11.5" y2="12.5" gradientUnits="userSpaceOnUse">
<stop stop-color="#7AB455"/>
<stop offset="1" stop-color="#8BAE79"/>
</linearGradient>
</defs>
</svg>
