<svg width="16" height="15" viewBox="0 0 16 15" fill="none" xmlns="http://www.w3.org/2000/svg">
<path d="M0 4.16667V2.70833C0 1.99004 0.273928 1.30116 0.761522 0.793252C1.24912 0.285341 1.91044 0 2.6 0H4.9032C5.38031 0.000216629 5.83783 0.197741 6.1752 0.549167L7.4 1.82417L5.3272 3.98333C5.21479 4.10058 5.06228 4.16652 4.9032 4.16667H0ZM0 5.41667V12.2917C0 13.01 0.273928 13.6988 0.761522 14.2067C1.24912 14.7147 1.91044 15 2.6 15H13.4C13.7414 15 14.0795 14.9299 14.395 14.7938C14.7104 14.6577 14.997 14.4582 15.2385 14.2067C15.4799 13.9553 15.6714 13.6567 15.8021 13.3281C15.9327 12.9995 16 12.6473 16 12.2917V4.79167C16 4.436 15.9327 4.08382 15.8021 3.75523C15.6714 3.42664 15.4799 3.12808 15.2385 2.87659C14.997 2.62509 14.7104 2.4256 14.395 2.28949C14.0795 2.15339 13.7414 2.08333 13.4 2.08333H8.848L6.176 4.8675C6.00885 5.04161 5.81042 5.17972 5.59203 5.27395C5.37365 5.36817 5.13958 5.41667 4.9032 5.41667H0Z" fill="url(#paint0_linear_1125_5)"/>
<defs>
<linearGradient id="paint0_linear_1125_5" x1="1.84615" y1="0.625" x2="14.3797" y2="15.4339" gradientUnits="userSpaceOnUse">
<stop stop-color="#43A305"/>
<stop offset="1" stop-color="#80BF60"/>
</linearGradient>
</defs>
</svg>
