<svg width="22" height="16" viewBox="0 0 22 16" fill="none" xmlns="http://www.w3.org/2000/svg">
<path d="M2.2 16C1.595 16 1.07727 15.8043 0.6468 15.413C0.216333 15.0217 0.000733333 14.5507 0 14V2C0 1.45 0.2156 0.979333 0.6468 0.588C1.078 0.196666 1.59573 0.000666667 2.2 0H7.8925C8.18583 0 8.4656 0.0500001 8.7318 0.15C8.998 0.25 9.23157 0.391666 9.4325 0.575L11 2H19.8C20.405 2 20.9231 2.196 21.3543 2.588C21.7855 2.98 22.0007 3.45067 22 4V14C22 14.55 21.7848 15.021 21.3543 15.413C20.9238 15.805 20.4057 16.0007 19.8 16H2.2Z" fill="black"/>
</svg>
