<svg width="27" height="26" viewBox="0 0 27 26" fill="none" xmlns="http://www.w3.org/2000/svg">
<path d="M17.8108 18.2497L25.287 25.7277C25.3733 25.814 25.4758 25.8825 25.5886 25.9292C25.7014 25.976 25.8223 26 25.9444 26C26.0664 26 26.1873 25.976 26.3001 25.9292C26.4129 25.8825 26.5154 25.814 26.6017 25.7277C26.6881 25.6414 26.7565 25.5389 26.8033 25.4261C26.85 25.3133 26.874 25.1924 26.874 25.0703C26.874 24.9483 26.85 24.8274 26.8033 24.7146C26.7565 24.6018 26.6881 24.4993 26.6017 24.413L2.46105 0.272291C2.37473 0.185964 2.27224 0.117486 2.15945 0.0707662C2.04666 0.0240463 1.92577 9.09603e-10 1.80368 0C1.6816 -9.09602e-10 1.56071 0.0240463 1.44792 0.0707662C1.33513 0.117486 1.23264 0.185964 1.14631 0.272291C1.05999 0.358618 0.991509 0.461103 0.94479 0.573895C0.89807 0.686687 0.874023 0.807576 0.874023 0.929661C0.874023 1.05175 0.89807 1.17263 0.94479 1.28543C0.991509 1.39822 1.05999 1.5007 1.14631 1.58703L7.14434 7.58506C6.32817 8.16359 5.59364 8.84941 4.96054 9.62402C4.06436 10.7236 3.36284 11.9684 2.8863 13.3045C2.8473 13.4178 2.79902 13.5738 2.79902 13.5738L2.7656 13.6889C2.7656 13.6889 2.62447 14.6119 3.42482 14.8236C3.66269 14.8864 3.9158 14.8523 4.12853 14.7287C4.34127 14.6051 4.49625 14.4021 4.55944 14.1643L4.56129 14.1588L4.57615 14.1123L4.64114 13.9099C5.04588 12.7819 5.63927 11.7307 6.39598 10.8013C6.99213 10.0714 7.69595 9.43646 8.48322 8.91837L11.4135 11.8487C10.8222 12.2193 10.322 12.7185 9.95025 13.3091C9.57845 13.8997 9.34459 14.5665 9.26606 15.2599C9.18753 15.9534 9.26636 16.6556 9.49666 17.3144C9.72697 17.9732 10.1028 18.5716 10.5963 19.065C11.0898 19.5585 11.6882 19.9344 12.347 20.1647C13.0057 20.395 13.708 20.4738 14.4014 20.3953C15.0949 20.3168 15.7617 20.0829 16.3523 19.7111C16.9429 19.3393 17.442 18.8391 17.8127 18.2478M16.4385 16.8737C16.2605 17.2934 15.9821 17.6631 15.6279 17.9502C15.2736 18.2373 14.8543 18.433 14.4068 18.5202C13.9592 18.6074 13.4971 18.5834 13.061 18.4502C12.6249 18.3171 12.2281 18.079 11.9055 17.7567C11.5829 17.4345 11.3444 17.038 11.2108 16.602C11.0773 16.166 11.0528 15.7039 11.1395 15.2563C11.2263 14.8086 11.4216 14.3891 11.7083 14.0346C11.995 13.68 12.3644 13.4013 12.784 13.2228L16.4385 16.8737ZM10.7543 5.94349L12.3402 7.52935C12.823 7.4625 13.3343 7.42907 13.874 7.42907C17.6697 7.42907 19.976 9.12264 21.3539 10.8032C22.1106 11.7326 22.704 12.7837 23.1088 13.9118C23.1397 14.0021 23.1614 14.0696 23.1738 14.1142L23.1886 14.1606V14.1662L23.1905 14.168C23.2592 14.3998 23.4155 14.5956 23.6264 14.7139C23.8372 14.8321 24.0858 14.8635 24.3194 14.8014C24.553 14.7392 24.7531 14.5885 24.8773 14.3811C25.0014 14.1737 25.0398 13.926 24.9843 13.6908V13.6852L24.9825 13.6778L24.975 13.6537C24.9436 13.5362 24.9064 13.4203 24.8636 13.3064C24.3871 11.9703 23.6855 10.7255 22.7894 9.62588C21.1255 7.59435 18.3233 5.5721 13.8777 5.5721C12.7301 5.5721 11.6921 5.7058 10.7562 5.94164" fill="black"/>
</svg>
