<svg width="23" height="15" viewBox="0 0 23 15" fill="none" xmlns="http://www.w3.org/2000/svg">
<path d="M1.86549 8.67188V8.6775C1.83318 8.79659 1.77715 8.90829 1.70063 9.0062C1.6241 9.10412 1.52857 9.18634 1.41951 9.24816C1.31044 9.30998 1.18997 9.35018 1.06499 9.36648C0.940007 9.38277 0.812964 9.37484 0.691124 9.34312C-0.135923 9.12937 0.00991326 8.1975 0.00991326 8.1975L0.0444538 8.08125C0.0444538 8.08125 0.0943451 7.92375 0.134642 7.80937C0.627073 6.46029 1.35199 5.20342 2.27806 4.09313C3.99931 2.04188 6.89494 0 11.4907 0C16.0865 0 18.9821 2.04188 20.7053 4.09313C21.6314 5.20342 22.3563 6.46029 22.8487 7.80937C22.89 7.92531 22.9284 8.04222 22.9638 8.16L22.9696 8.18437V8.19188L22.9715 8.19563C23.0324 8.43425 22.9949 8.68669 22.867 8.89853C22.7392 9.11036 22.5313 9.26464 22.2881 9.3281C22.045 9.39155 21.786 9.35911 21.5671 9.23776C21.3482 9.11641 21.1869 8.91587 21.1179 8.67937L21.1159 8.67188L21.1006 8.625L21.0334 8.42063C20.6152 7.28161 20.002 6.22027 19.2201 5.28187C17.7962 3.585 15.4149 1.875 11.4907 1.875C7.56656 1.875 5.18712 3.585 3.76137 5.28187C2.97942 6.22027 2.36625 7.28161 1.94801 8.42063L1.88084 8.625L1.86549 8.67188ZM11.4907 5.625C10.2184 5.625 8.9982 6.11886 8.09854 6.99794C7.19888 7.87701 6.69346 9.0693 6.69346 10.3125C6.69346 11.5557 7.19888 12.748 8.09854 13.6271C8.9982 14.5061 10.2184 15 11.4907 15C12.763 15 13.9832 14.5061 14.8829 13.6271C15.7826 12.748 16.288 11.5557 16.288 10.3125C16.288 9.0693 15.7826 7.87701 14.8829 6.99794C13.9832 6.11886 12.763 5.625 11.4907 5.625ZM8.61236 10.3125C8.61236 9.56658 8.91561 8.85121 9.45541 8.32376C9.99521 7.79632 10.7273 7.5 11.4907 7.5C12.2541 7.5 12.9862 7.79632 13.526 8.32376C14.0658 8.85121 14.3691 9.56658 14.3691 10.3125C14.3691 11.0584 14.0658 11.7738 13.526 12.3012C12.9862 12.8287 12.2541 13.125 11.4907 13.125C10.7273 13.125 9.99521 12.8287 9.45541 12.3012C8.91561 11.7738 8.61236 11.0584 8.61236 10.3125Z" fill="black"/>
</svg>
