<svg width="20" height="22" viewBox="0 0 20 22" fill="none" xmlns="http://www.w3.org/2000/svg">
<path d="M10 8.77778C10.4596 8.77778 10.9148 8.67719 11.3394 8.48175C11.764 8.28632 12.1499 7.99987 12.4749 7.63875C12.7999 7.27763 13.0577 6.84892 13.2336 6.3771C13.4095 5.90528 13.5 5.39959 13.5 4.88889C13.5 4.37819 13.4095 3.8725 13.2336 3.40068C13.0577 2.92885 12.7999 2.50015 12.4749 2.13903C12.1499 1.77791 11.764 1.49146 11.3394 1.29602C10.9148 1.10059 10.4596 1 10 1C9.07174 1 8.1815 1.40972 7.52513 2.13903C6.86875 2.86834 6.5 3.85749 6.5 4.88889C6.5 5.92029 6.86875 6.90944 7.52513 7.63875C8.1815 8.36806 9.07174 8.77778 10 8.77778ZM1 20.3333V21H19V20.3333C19 17.8444 19 16.6 18.564 15.6489C18.1805 14.8127 17.5686 14.1328 16.816 13.7067C15.96 13.2222 14.84 13.2222 12.6 13.2222H7.4C5.16 13.2222 4.04 13.2222 3.184 13.7067C2.43139 14.1328 1.81949 14.8127 1.436 15.6489C1 16.6 1 17.8444 1 20.3333Z" fill="#2A2A2C" stroke="#2A2A2C" stroke-width="2" stroke-linecap="round" stroke-linejoin="round"/>
</svg>
