<svg width="25" height="25" viewBox="0 0 25 25" fill="none" xmlns="http://www.w3.org/2000/svg">
<path d="M2.03887 0.152597C0.921992 -0.405528 -0.314258 0.660097 0.072617 1.84697L2.58137 9.5376C2.65232 9.75487 2.78149 9.94852 2.95483 10.0975C3.12816 10.2465 3.33903 10.3451 3.56449 10.3826L13.477 12.0345C13.9989 12.122 13.9989 12.872 13.477 12.9595L3.56512 14.6113C3.33965 14.6489 3.12879 14.7475 2.95545 14.8964C2.78212 15.0454 2.65295 15.2391 2.58199 15.4563L0.072617 23.1513C-0.314883 24.3388 0.921992 25.4045 2.03887 24.8463L24.2226 13.7576C25.2595 13.2388 25.2595 11.7595 24.2226 11.2413L2.03887 0.152597Z" fill="black"/>
</svg>
