<svg width="35" height="34" viewBox="0 0 35 34" fill="none" xmlns="http://www.w3.org/2000/svg">
<path d="M2.27674 16.9994L1.02666 5.64483C0.668612 2.39531 3.98421 0.00828826 6.91278 1.40959L31.6328 13.2257C34.7891 14.7335 34.7891 19.2653 31.6328 20.7731L6.91278 32.5912C3.98421 33.9904 0.668612 31.6055 1.02666 28.356L2.27674 16.9994ZM2.27674 16.9994H16.7644H2.27674Z" fill="#334CD3"/>
<path d="M2.27674 16.9994L1.02666 5.64483C0.668612 2.39531 3.98421 0.00828824 6.91278 1.40959L31.6328 13.2257C34.7891 14.7335 34.7891 19.2653 31.6328 20.7731L6.91278 32.5912C3.98421 33.9904 0.668612 31.6055 1.02666 28.356L2.27674 16.9994ZM2.27674 16.9994H16.7644" stroke="white" stroke-linecap="round" stroke-linejoin="round"/>
</svg>
