<svg width="29" height="29" viewBox="0 0 29 29" fill="none" xmlns="http://www.w3.org/2000/svg">
<path d="M14.5 19.1875L19.1875 14.5M19.1875 14.5L14.5 9.8125M19.1875 14.5H2M2 7.075V7C2 5.25 2 4.375 2.34062 3.70625C2.64062 3.11719 3.11719 2.64062 3.70625 2.34062C4.375 2 5.25 2 7 2H22C23.75 2 24.625 2 25.2922 2.34062C25.8812 2.64062 26.3594 3.11719 26.6594 3.70625C27 4.37344 27 5.24844 27 6.99531V22.0063C27 23.7531 27 24.6266 26.6594 25.2938C26.3594 25.882 25.8807 26.36 25.2922 26.6594C24.625 27 23.7516 27 22.0047 27H6.99531C5.24844 27 4.37344 27 3.70625 26.6594C3.11827 26.3598 2.64022 25.8817 2.34062 25.2938C2 24.625 2 23.75 2 22V21.9219" stroke="black" stroke-width="2.5" stroke-linecap="round" stroke-linejoin="round"/>
</svg>
