<svg width="261" height="23" viewBox="0 0 261 23" fill="none" xmlns="http://www.w3.org/2000/svg">
<path d="M250.731 16.1358C249.577 14.8767 249 13.3314 249 11.5C249 9.66855 249.577 8.13145 250.731 6.88868C251.9 5.62956 253.323 5 255 5C256.677 5 258.092 5.62956 259.246 6.88868C260.415 8.13145 261 9.66855 261 11.5V12.3585H251.423C251.608 13.3887 252.031 14.1981 252.692 14.7868C253.354 15.3755 254.123 15.6698 255 15.6698C256.077 15.6698 256.938 15.3836 257.585 14.8113C257.877 14.5824 258.131 14.2962 258.346 13.9528H260.885C260.562 14.7541 260.154 15.4327 259.662 15.9887C258.4 17.3296 256.846 18 255 18C253.323 18 251.9 17.3786 250.731 16.1358ZM251.538 10.2736H258.462C258.323 9.45598 257.954 8.76101 257.354 8.18868C256.769 7.61635 255.985 7.33019 255 7.33019C254.169 7.33019 253.431 7.6 252.785 8.13962C252.138 8.66289 251.723 9.37421 251.538 10.2736Z" fill="#010101"/>
<path d="M241 18V5.12621H243.371V7.01942H243.484C243.649 6.66602 243.89 6.32945 244.206 6.00971C244.899 5.33657 245.712 5 246.645 5H248V7.52427H246.532C245.614 7.52427 244.854 7.85243 244.252 8.50874C243.665 9.14822 243.371 9.99806 243.371 11.0583V18H241Z" fill="#010101"/>
<path d="M207 1H209.739L212.524 15.5714H212.866L215.56 1H219.554L222.362 15.5714H222.704L225.375 1H228L224.69 18H220.467L217.728 4.03571H217.386L214.761 18H210.424L207 1Z" fill="#010101"/>
<path d="M194 18V1H196.457V10.4714H198.213L201.84 5.61428H204.649L200.319 11.3214L205 18H201.957L198.33 12.7786H196.457V18H194Z" fill="#010101"/>
<path d="M182 13.8302H184.527C184.63 14.1572 184.813 14.4679 185.077 14.7623C185.619 15.3673 186.352 15.6698 187.275 15.6698C188.081 15.6698 188.667 15.5308 189.033 15.2528C189.399 14.9748 189.582 14.6233 189.582 14.1981C189.582 14.0509 189.553 13.9201 189.495 13.8057C189.436 13.6748 189.333 13.5604 189.187 13.4623C189.04 13.3642 188.901 13.2824 188.769 13.217C188.637 13.1352 188.44 13.0616 188.176 12.9962C187.912 12.9145 187.7 12.8572 187.538 12.8245C187.377 12.7755 187.128 12.7101 186.791 12.6283C186.469 12.5465 186.227 12.4893 186.066 12.4566C183.722 11.8679 182.549 10.6088 182.549 8.67925C182.549 7.69811 182.952 6.83962 183.758 6.10377C184.564 5.36793 185.626 5 186.945 5C188.777 5 190.147 5.65409 191.055 6.96226C191.465 7.53459 191.744 8.18868 191.89 8.92453H189.473C189.355 8.59748 189.194 8.33585 188.989 8.13962C188.476 7.6 187.795 7.33019 186.945 7.33019C186.286 7.33019 185.788 7.46101 185.451 7.72264C185.128 7.98428 184.967 8.31132 184.967 8.70377C184.967 8.85094 184.996 8.98994 185.055 9.12075C185.114 9.23522 185.216 9.34151 185.363 9.43962C185.509 9.53774 185.648 9.6195 185.78 9.68491C185.927 9.75032 186.125 9.8239 186.374 9.90566C186.623 9.97107 186.835 10.0283 187.011 10.0774C187.187 10.1101 187.429 10.1673 187.736 10.2491C188.059 10.3145 188.308 10.3717 188.484 10.4208C190.828 11.0094 192 12.2686 192 14.1981C192 15.2447 191.575 16.144 190.725 16.8962C189.89 17.6321 188.74 18 187.275 18C185.37 18 183.912 17.305 182.901 15.9151C182.447 15.2774 182.147 14.5824 182 13.8302Z" fill="#010101"/>
<path d="M157 3.67143V1H170V3.67143H164.8V18H162.2V3.67143H157Z" fill="#010101"/>
<path d="M148 12.3V10H156.395V12.3H148Z" fill="#010101"/>
<path d="M17.2102 17.9985C17.2097 17.9996 17.2092 18.0007 17.2086 18.0018H17.2124L17.2102 17.9985Z" fill="#010101"/>
<path d="M30 14.1987C30 13.1032 30.3946 12.1961 31.1847 11.4763C31.9744 10.7571 33.1012 10.3969 34.5652 10.3969H37.7177V9.90607C37.7177 9.10477 37.5111 8.47518 37.0981 8.0173C36.6851 7.55941 36.0943 7.33047 35.3262 7.33047C34.4853 7.33047 33.8114 7.61665 33.3041 8.189C33.0869 8.4509 32.927 8.73708 32.826 9.04754H30.4345C30.579 8.29538 30.8619 7.62475 31.2826 7.0362C32.2536 5.67874 33.6013 5 35.3262 5C36.7753 5 37.9165 5.44574 38.7502 6.33665C39.5834 7.22814 40 8.41795 40 9.90549V17.7549H37.7171V16.0378H37.6085C37.3764 16.398 37.0869 16.7246 36.7389 17.0189C35.9267 17.6733 34.9849 18 33.9124 18C32.6805 18 31.7202 17.6525 31.0315 16.9576C30.3438 16.2633 30 15.3435 30 14.1987ZM32.3915 14.0762C32.3915 15.1394 33.0797 15.6707 34.4566 15.6707C35.4855 15.6707 36.2864 15.3886 36.8588 14.8243C37.4312 14.26 37.7177 13.4795 37.7177 12.4817H34.3479C33.0438 12.4817 32.3915 13.0136 32.3915 14.0762Z" fill="#010101"/>
<path d="M41 5H43.396L45.792 15.5782H47.208L49.604 5H52L48.9504 18H44.0496L41 5Z" fill="#010101"/>
<path d="M53 14.1987C53 13.1032 53.3946 12.1961 54.1847 11.4763C54.9744 10.7571 56.1012 10.3969 57.5652 10.3969H60.7177V9.90607C60.7177 9.10477 60.5111 8.47518 60.0981 8.0173C59.6851 7.55941 59.0943 7.33047 58.3262 7.33047C57.4853 7.33047 56.8114 7.61665 56.3041 8.189C56.0869 8.4509 55.927 8.73708 55.826 9.04754H53.4345C53.579 8.29538 53.8619 7.62475 54.2826 7.0362C55.2537 5.67874 56.6013 5 58.3262 5C59.7753 5 60.9165 5.44574 61.7502 6.33665C62.5834 7.22814 63 8.41795 63 9.90549V17.7549H60.7171V16.0378H60.6085C60.3764 16.398 60.0869 16.7246 59.7389 17.0189C58.9267 17.6733 57.9849 18 56.9124 18C55.6805 18 54.7202 17.6525 54.0315 16.9576C53.3438 16.2633 53 15.3435 53 14.1987ZM55.3915 14.0762C55.3915 15.1394 56.0797 15.6707 57.4566 15.6707C58.4855 15.6707 59.2864 15.3886 59.8588 14.8243C60.4312 14.26 60.7177 13.4795 60.7177 12.4817H57.3479C56.0438 12.4817 55.3915 13.0136 55.3915 14.0762Z" fill="#010101"/>
<path d="M65 18V5.24984H67.2341V6.99991H67.3404C67.5104 6.66698 67.7727 6.33347 68.1277 5.99995C68.8935 5.33351 69.7661 5 70.7449 5C72.0924 5 73.1385 5.45843 73.8832 6.3753C74.6279 7.29218 75 8.62506 75 10.3751V18H72.7659V10.625C72.7659 9.50893 72.5563 8.68752 72.1386 8.1625C71.7198 7.63748 71.0779 7.37526 70.2129 7.37526C69.3478 7.37526 68.6347 7.72115 68.0746 8.41293C67.5139 9.10471 67.2341 10.0092 67.2341 11.1252V18H65Z" fill="#010101"/>
<path d="M76 6.95546V4.42752H77.4771V1.5H80.0618V4.42752H83.877V6.95546H80.0618V15.4721H84V18H77.4771V6.95546H76Z" fill="#010101"/>
<path d="M86.6117 16.5733C85.5369 15.331 85 13.7129 85 11.7183C85 9.72423 85.5374 8.10547 86.6117 6.86316C87.686 5.62085 89.0314 5 90.647 5C91.6664 5 92.6003 5.32148 93.4472 5.96325C93.8238 6.25067 94.1449 6.57156 94.4117 6.9265H94.5292V5.25336H97V23H86.7642V20.5913H94.5292V16.5351H94.4117C94.1449 16.89 93.8232 17.2115 93.4472 17.4984C92.6153 18.124 91.6824 18.4365 90.647 18.4365C89.0309 18.4365 87.686 17.8157 86.6117 16.5733ZM88.529 8.52375C87.9011 9.2677 87.5878 10.3325 87.5878 11.7183C87.5878 13.104 87.9011 14.1688 88.529 14.9128C89.1562 15.6567 90.0192 16.0284 91.1173 16.0284C92.1528 16.0284 92.9797 15.6525 93.5997 14.9002C94.2192 14.1485 94.5292 13.0872 94.5292 11.7183C94.5292 10.3493 94.2192 9.28862 93.5997 8.5363C92.9797 7.78458 92.1528 7.40813 91.1173 7.40813C90.0192 7.40872 89.1562 7.7804 88.529 8.52375Z" fill="#010101"/>
<path d="M99 12.6249V5H101.457V12.375C101.457 13.4917 101.687 14.3125 102.148 14.8375C102.608 15.3625 103.314 15.6247 104.266 15.6247C105.218 15.6247 106.001 15.2788 106.618 14.5871C107.234 13.8953 107.543 12.9914 107.543 11.8748V5H110V17.7502H107.543V16.0001H107.426C107.239 16.3336 106.95 16.6671 106.56 17C105.717 17.6671 104.758 18 103.681 18C102.199 18 101.049 17.5416 100.23 16.6247C99.4098 15.7084 99 14.3749 99 12.6249Z" fill="#010101"/>
<path d="M112 14.1987C112 13.1032 112.395 12.1961 113.185 11.4763C113.974 10.7571 115.101 10.3969 116.565 10.3969H119.718V9.90607C119.718 9.10477 119.511 8.47518 119.098 8.0173C118.685 7.55941 118.094 7.33047 117.326 7.33047C116.485 7.33047 115.811 7.61665 115.304 8.189C115.087 8.4509 114.927 8.73708 114.826 9.04754H112.435C112.579 8.29538 112.862 7.62475 113.283 7.0362C114.254 5.67874 115.601 5 117.326 5C118.775 5 119.916 5.44574 120.75 6.33665C121.583 7.22814 122 8.41795 122 9.90549V17.7549H119.717V16.0378H119.608C119.376 16.398 119.087 16.7246 118.739 17.0189C117.927 17.6733 116.985 18 115.912 18C114.681 18 113.72 17.6525 113.032 16.9576C112.344 16.2633 112 15.3435 112 14.1987ZM114.392 14.0762C114.392 15.1394 115.08 15.6707 116.457 15.6707C117.486 15.6707 118.286 15.3886 118.859 14.8243C119.431 14.26 119.718 13.4795 119.718 12.4817H116.348C115.044 12.4817 114.392 13.0136 114.392 14.0762Z" fill="#010101"/>
<path d="M124 18V5.12613H126.371V7.01931H126.484C126.649 6.6659 126.89 6.32975 127.206 6.00966C127.899 5.33675 128.712 5 129.645 5H131V7.52444H129.532C128.614 7.52444 127.857 7.8487 127.263 8.49602C126.668 9.14394 126.371 9.99831 126.371 11.0579V17.9994H124V18Z" fill="#010101"/>
<path d="M133.612 16.2403C132.537 15.0671 132 13.5388 132 11.655C132 9.77173 132.537 8.2429 133.612 7.06961C134.686 5.89632 136.031 5.30996 137.647 5.30996C138.666 5.30996 139.6 5.61358 140.447 6.2197C140.807 6.47535 141.129 6.77051 141.411 7.10573H141.529V1H144V17.7607H141.529V16.2042H141.412C141.145 16.5395 140.823 16.8431 140.447 17.114C139.615 17.7048 138.683 18 137.647 18C136.031 18 134.686 17.4136 133.612 16.2403ZM135.529 8.63795C134.902 9.34057 134.588 10.3462 134.588 11.655C134.588 12.9637 134.902 13.9694 135.529 14.672C136.157 15.3746 137.019 15.7257 138.118 15.7257C139.153 15.7257 139.98 15.3707 140.6 14.6602C141.219 13.9502 141.529 12.9479 141.529 11.655C141.529 10.362 141.219 9.36032 140.6 8.6498C139.98 7.93985 139.153 7.5843 138.118 7.5843C137.019 7.58487 136.157 7.93589 135.529 8.63795Z" fill="#010101"/>
<path d="M11.5003 0C5.149 0 0 5.14888 0 11.5C0 13.5945 0.56273 15.5567 1.54165 17.2486C1.54219 17.2497 1.54274 17.2508 1.54328 17.2519C3.53218 20.687 7.24466 23 11.4997 23C17.851 23 23 17.8511 23 11.5C23 5.14888 17.8515 0 11.5003 0ZM19.433 17.2486H3.56758L2.5538 15.4929L10.487 1.7546H12.5135L20.4467 15.4924L19.433 17.2486Z" fill="#010101"/>
<path d="M24.2869 0C23.4232 0 22.7345 0.708255 22.7345 1.59045C22.7345 2.49254 23.4237 3.20023 24.2869 3.20023C25.1597 3.20023 25.8306 2.49254 25.8306 1.59045C25.8301 0.708255 25.1597 0 24.2869 0ZM24.296 2.86145C23.616 2.86145 23.1201 2.29871 23.1201 1.59102C23.1201 0.892425 23.616 0.320592 24.2869 0.320592C24.9578 0.320592 25.4446 0.892993 25.4446 1.60068C25.4446 2.29871 24.9573 2.86145 24.296 2.86145Z" fill="#010101"/>
<path d="M24.6359 1.63942V1.62009C24.82 1.56154 24.9487 1.42569 24.9487 1.25118C24.9487 1.096 24.8841 0.969813 24.8017 0.902171C24.6913 0.834528 24.5627 0.785645 24.2778 0.785645C24.0296 0.785645 23.8368 0.80497 23.699 0.833959V2.42441H24.0479V1.78437H24.2137C24.4065 1.78437 24.4986 1.86224 24.526 2.03674C24.5718 2.22091 24.5993 2.36643 24.6456 2.42441H25.0225C24.9859 2.36643 24.9584 2.26923 24.9121 2.02651C24.8658 1.81392 24.7829 1.69739 24.6359 1.63942ZM24.2223 1.52289H24.057V1.06701C24.0937 1.05735 24.1583 1.04712 24.2498 1.04712C24.47 1.04712 24.5713 1.14432 24.5713 1.28984C24.5718 1.45468 24.4157 1.52289 24.2223 1.52289Z" fill="#010101"/>
<path d="M170 14.1987C170 13.1032 170.395 12.1961 171.185 11.4763C171.974 10.7571 173.101 10.3969 174.565 10.3969H177.718V9.90607C177.718 9.10477 177.511 8.47518 177.098 8.0173C176.685 7.55941 176.094 7.33047 175.326 7.33047C174.485 7.33047 173.811 7.61665 173.304 8.189C173.087 8.4509 172.927 8.73708 172.826 9.04754H170.435C170.579 8.29538 170.862 7.62475 171.283 7.0362C172.254 5.67874 173.601 5 175.326 5C176.775 5 177.916 5.44574 178.75 6.33665C179.583 7.22814 180 8.41795 180 9.90549V17.7549H177.717V16.0378H177.608C177.376 16.398 177.087 16.7246 176.739 17.0189C175.927 17.6733 174.985 18 173.912 18C172.681 18 171.72 17.6525 171.032 16.9576C170.344 16.2633 170 15.3435 170 14.1987ZM172.392 14.0762C172.392 15.1394 173.08 15.6707 174.457 15.6707C175.486 15.6707 176.286 15.3886 176.859 14.8243C177.431 14.26 177.718 13.4795 177.718 12.4817H174.348C173.044 12.4817 172.392 13.0136 172.392 14.0762Z" fill="#010101"/>
<path d="M229 14.1987C229 13.1032 229.395 12.1961 230.185 11.4763C230.974 10.7571 232.101 10.3969 233.565 10.3969H236.718V9.90607C236.718 9.10477 236.511 8.47518 236.098 8.0173C235.685 7.55941 235.094 7.33047 234.326 7.33047C233.485 7.33047 232.811 7.61665 232.304 8.189C232.087 8.4509 231.927 8.73708 231.826 9.04754H229.435C229.579 8.29538 229.862 7.62475 230.283 7.0362C231.254 5.67874 232.601 5 234.326 5C235.775 5 236.916 5.44574 237.75 6.33665C238.583 7.22814 239 8.41795 239 9.90549V17.7549H236.717V16.0378H236.608C236.376 16.398 236.087 16.7246 235.739 17.0189C234.927 17.6733 233.985 18 232.912 18C231.681 18 230.72 17.6525 230.032 16.9576C229.344 16.2633 229 15.3435 229 14.1987ZM231.392 14.0762C231.392 15.1394 232.08 15.6707 233.457 15.6707C234.486 15.6707 235.286 15.3886 235.859 14.8243C236.431 14.26 236.718 13.4795 236.718 12.4817H233.348C232.044 12.4817 231.392 13.0136 231.392 14.0762Z" fill="#010101"/>
</svg>
