<svg width="23" height="25" viewBox="0 0 23 25" fill="none" xmlns="http://www.w3.org/2000/svg">
<path fill-rule="evenodd" clip-rule="evenodd" d="M2.49367 9.21152C2.49367 6.76848 3.44255 4.42549 5.13157 2.69799C6.82058 0.970497 9.11137 0 11.5 0C13.8886 0 16.1794 0.970497 17.8684 2.69799C19.5574 4.42549 20.5063 6.76848 20.5063 9.21152V14.1647L22.8505 18.9599C22.9585 19.1807 23.0094 19.4259 22.9986 19.6724C22.9877 19.9189 22.9155 20.1585 22.7886 20.3684C22.6617 20.5784 22.4845 20.7516 22.2738 20.8718C22.0631 20.9919 21.8258 21.0549 21.5845 21.0549H16.4844C16.1982 22.1843 15.5534 23.1845 14.6513 23.8985C13.7491 24.6126 12.6407 25 11.5 25C10.3593 25 9.25087 24.6126 8.34873 23.8985C7.4466 23.1845 6.80183 22.1843 6.51564 21.0549H1.41549C1.17422 21.0549 0.936946 20.9919 0.726205 20.8718C0.515464 20.7516 0.338253 20.5784 0.211401 20.3684C0.0845502 20.1585 0.0122714 19.9189 0.0014298 19.6724C-0.00941178 19.4259 0.0415439 19.1807 0.149457 18.9599L2.49367 14.1647V9.21152ZM9.27158 21.0549C9.49743 21.455 9.82227 21.7872 10.2134 22.0182C10.6046 22.2491 11.0483 22.3707 11.5 22.3707C11.9517 22.3707 12.3954 22.2491 12.7866 22.0182C13.1777 21.7872 13.5026 21.455 13.7284 21.0549H9.27158ZM11.5 2.63186C9.79384 2.63186 8.15756 3.32508 6.95112 4.559C5.74468 5.79293 5.06691 7.46649 5.06691 9.21152V14.1647C5.06688 14.5731 4.97394 14.9758 4.79543 15.3411L3.29009 18.423H19.7112L18.2059 15.3411C18.0269 14.9759 17.9335 14.5732 17.9331 14.1647V9.21152C17.9331 7.46649 17.2553 5.79293 16.0489 4.559C14.8424 3.32508 13.2062 2.63186 11.5 2.63186Z" fill="black"/>
</svg>
