<svg width="30" height="30" viewBox="0 0 30 30" fill="none" xmlns="http://www.w3.org/2000/svg">
<path fill-rule="evenodd" clip-rule="evenodd" d="M10.2061 7.92254L9.72361 9.41486H8.23833C7.45798 9.41486 6.70959 9.72485 6.1578 10.2766C5.60601 10.8284 5.29602 11.5768 5.29602 12.3571V19.4186C5.29602 19.805 5.37213 20.1876 5.51999 20.5446C5.66786 20.9016 5.88458 21.2259 6.1578 21.4991C6.43102 21.7724 6.75538 21.9891 7.11236 22.1369C7.46933 22.2848 7.85194 22.3609 8.23833 22.3609H21.1845C21.5709 22.3609 21.9535 22.2848 22.3105 22.1369C22.6674 21.9891 22.9918 21.7724 23.265 21.4991C23.5382 21.2259 23.755 20.9016 23.9028 20.5446C24.0507 20.1876 24.1268 19.805 24.1268 19.4186V12.3571C24.1268 11.5768 23.8168 10.8284 23.265 10.2766C22.7132 9.72485 21.9648 9.41486 21.1845 9.41486H19.698L19.2167 7.92254C19.0254 7.33015 18.6513 6.81367 18.1479 6.44739C17.6446 6.08111 17.0381 5.8839 16.4156 5.88412H13.006C12.3836 5.8839 11.777 6.08111 11.2737 6.44739C10.7704 6.81367 10.3962 7.33015 10.205 7.92254M8.23833 10.5918H10.5804L11.3254 8.28503C11.44 7.92942 11.6644 7.61933 11.9664 7.39938C12.2684 7.17943 12.6324 7.06097 13.006 7.06104H16.4168C16.7902 7.06122 17.1539 7.17979 17.4557 7.39973C17.7575 7.61966 17.9817 7.92961 18.0962 8.28503L18.8412 10.5918H21.1845C21.6527 10.5918 22.1017 10.7778 22.4328 11.1088C22.7639 11.4399 22.9499 11.8889 22.9499 12.3571V19.4186C22.9499 19.8868 22.7639 20.3359 22.4328 20.6669C22.1017 20.998 21.6527 21.184 21.1845 21.184H8.23833C7.77012 21.184 7.32109 20.998 6.99001 20.6669C6.65894 20.3359 6.47294 19.8868 6.47294 19.4186V12.3571C6.47294 11.8889 6.65894 11.4399 6.99001 11.1088C7.32109 10.7778 7.77012 10.5918 8.23833 10.5918Z" fill="black"/>
<path fill-rule="evenodd" clip-rule="evenodd" d="M11.4231 15.4536C11.4231 16.39 11.7951 17.2881 12.4572 17.9502C13.1194 18.6123 14.0174 18.9843 14.9539 18.9843C15.8903 18.9843 16.7884 18.6123 17.4505 17.9502C18.1126 17.2881 18.4846 16.39 18.4846 15.4536C18.4846 14.5172 18.1126 13.6191 17.4505 12.957C16.7884 12.2948 15.8903 11.9229 14.9539 11.9229C14.0174 11.9229 13.1194 12.2948 12.4572 12.957C11.7951 13.6191 11.4231 14.5172 11.4231 15.4536ZM17.3077 15.4536C17.3077 16.0779 17.0597 16.6766 16.6183 17.118C16.1769 17.5594 15.5781 17.8074 14.9539 17.8074C14.3296 17.8074 13.7309 17.5594 13.2894 17.118C12.848 16.6766 12.6 16.0779 12.6 15.4536C12.6 14.8293 12.848 14.2306 13.2894 13.7892C13.7309 13.3478 14.3296 13.0998 14.9539 13.0998C15.5781 13.0998 16.1769 13.3478 16.6183 13.7892C17.0597 14.2306 17.3077 14.8293 17.3077 15.4536Z" fill="black"/>
<path fill-rule="evenodd" clip-rule="evenodd" d="M14.7115 28.2459C22.1862 28.2459 28.2462 22.186 28.2462 14.7114C28.2462 7.23684 22.1862 1.17691 14.7115 1.17691C7.23691 1.17691 1.17692 7.23684 1.17692 14.7114C1.17692 22.186 7.23691 28.2459 14.7115 28.2459ZM14.7115 29.4229C22.837 29.4229 29.4231 22.8368 29.4231 14.7114C29.4231 6.58601 22.837 0 14.7115 0C6.58607 0 0 6.58601 0 14.7114C0 22.8368 6.58607 29.4229 14.7115 29.4229Z" fill="black"/>
</svg>
